<svg xmlns="http://www.w3.org/2000/svg" width="93" height="92.567" viewBox="0 0 93 92.567">
  <g id="consult" transform="translate(-0.855 -1)">
    <path id="Path_241" data-name="Path 241" d="M29,20.7h4.479a6.289,6.289,0,0,0,5.657-3.5l.157-.315-2.671-1.336-.157.317a3.32,3.32,0,0,1-2.986,1.845H29Z" transform="translate(13.876 7.174)" fill="#fff"/>
    <path id="Path_242" data-name="Path 242" d="M29,57h8.958v2.986H29Z" transform="translate(13.876 27.609)" fill="#fff"/>
    <path id="Path_243" data-name="Path 243" d="M29,53h8.958v2.986H29Z" transform="translate(13.876 25.637)" fill="#fff"/>
    <path id="Path_244" data-name="Path 244" d="M29,49h8.958v2.986H29Z" transform="translate(13.876 23.665)" fill="#fff"/>
    <path id="Path_245" data-name="Path 245" d="M90.652,66.693H83.805L71.754,54.641A52.2,52.2,0,0,0,93.022,33.849l.833-1.5-.833-1.5A52.523,52.523,0,0,0,61.376,5.912,12.1,12.1,0,0,0,51.65,1H43.06a12.1,12.1,0,0,0-9.726,4.912A52.518,52.518,0,0,0,1.688,30.857l-.833,1.5.833,1.5A52.208,52.208,0,0,0,22.956,54.641L10.9,66.693H4.058a2.989,2.989,0,0,0-2.986,2.986v20.9a2.989,2.989,0,0,0,2.986,2.986h14.93a2.989,2.989,0,0,0,2.986-2.986v-20.9a2.989,2.989,0,0,0-2.986-2.986H15.127L25.791,56.028A52.147,52.147,0,0,0,45.862,60.67v6.023H39.89A2.989,2.989,0,0,0,36.9,69.679v20.9a2.989,2.989,0,0,0,2.986,2.986H54.82a2.989,2.989,0,0,0,2.986-2.986v-20.9a2.989,2.989,0,0,0-2.986-2.986H48.848V60.67a52.146,52.146,0,0,0,20.071-4.642L79.583,66.693H75.722a2.989,2.989,0,0,0-2.986,2.986v20.9a2.989,2.989,0,0,0,2.986,2.986h14.93a2.989,2.989,0,0,0,2.986-2.986v-20.9a2.989,2.989,0,0,0-2.986-2.986ZM18.991,90.581H4.058v-20.9h14.93Zm35.832,0H39.89v-20.9H54.82ZM90.412,32.307l.024.046-.025.046A49.248,49.248,0,0,1,65.252,54.337a28.341,28.341,0,0,0,.022-43.975A49.567,49.567,0,0,1,90.412,32.307ZM36.9,24.888a2.986,2.986,0,1,1,0-5.972Zm-5.609-8.819.635,2.54A5.964,5.964,0,0,0,36.9,27.874h.151a7.464,7.464,0,0,0,3.6,4.942l-.433,1.3A17.224,17.224,0,0,0,28.055,48.8,25.327,25.327,0,0,1,30.938,13c0,.042-.006.084-.006.127a12.1,12.1,0,0,0,.363,2.941Zm26.511,2.847a2.986,2.986,0,1,1,0,5.972Zm-.151,8.958h.151a5.964,5.964,0,0,0,4.975-9.266l.635-2.538a12.126,12.126,0,0,0,.363-2.943c0-.043-.006-.085-.006-.128a25.329,25.329,0,0,1,2.883,35.8A17.228,17.228,0,0,0,54.493,34.112l-.433-1.3A7.464,7.464,0,0,0,57.655,27.874ZM44.369,33.846h5.972a7.228,7.228,0,0,0,.885-.09l.275.826-4.146,2.074-4.146-2.074.275-.826a7.228,7.228,0,0,0,.885.09Zm6.087,4.6,3.016-1.508a14.063,14.063,0,0,1,1.92.7l-1.277,3Zm-9.218-1.508,3.016,1.508-3.661,2.2-1.277-3a14.23,14.23,0,0,1,1.922-.7Zm-4.516,2.228,2.463,5.8,4.2-2.522.872,1.935-4.1,12.3a25.342,25.342,0,0,1-9.23-5.011V50.638A14.248,14.248,0,0,1,36.722,39.164Zm10.1,3.64L45.968,40.9l1.387-.832,1.387.832L47.884,42.8Zm4.494-.358,4.2,2.522,2.463-5.8a14.248,14.248,0,0,1,5.79,11.472V51.67a25.342,25.342,0,0,1-9.23,5.011l-4.1-12.3Zm3.5-16.065a4.485,4.485,0,0,1-4.479,4.479H44.369a4.485,4.485,0,0,1-4.479-4.479V17.205a2.972,2.972,0,0,1,1.474-2.577,8.076,8.076,0,0,0,5.814,3.382l7.643.764ZM43.086,57.346l3.85-11.556h.835l3.852,11.556a23.663,23.663,0,0,1-8.537,0ZM43.06,3.986H51.65a9.141,9.141,0,0,1,8.869,11.359L60.24,16.46a5.92,5.92,0,0,0-2.434-.53H56.391l-8.916-.891a5.089,5.089,0,0,1-4.6-5.081H39.89a8.206,8.206,0,0,0,.233,1.947,5.918,5.918,0,0,0-3.07,4.025H36.9a5.933,5.933,0,0,0-2.435.53l-.279-1.117A9.145,9.145,0,0,1,43.06,3.986ZM4.3,32.4l-.024-.046.025-.046A49.561,49.561,0,0,1,29.442,10.36a28.339,28.339,0,0,0,.015,43.977A49.248,49.248,0,0,1,4.3,32.4ZM75.722,90.581v-20.9h14.93l0,20.9Z" fill="#fff"/>
    <path id="Path_246" data-name="Path 246" d="M5,57h8.958v2.986H5Z" transform="translate(2.044 27.609)" fill="#fff"/>
    <path id="Path_247" data-name="Path 247" d="M5,53h8.958v2.986H5Z" transform="translate(2.044 25.637)" fill="#fff"/>
    <path id="Path_248" data-name="Path 248" d="M5,49h8.958v2.986H5Z" transform="translate(2.044 23.665)" fill="#fff"/>
    <path id="Path_249" data-name="Path 249" d="M56.1,57.889l-1.7-1.7L52.293,58.3l4.273,4.273L63.549,52.1l-2.484-1.657Z" transform="translate(25.36 24.377)" fill="#fff"/>
  </g>
</svg>
