<svg xmlns="http://www.w3.org/2000/svg" width="15" height="18.462" viewBox="0 0 15 18.462">
  <g id="contact-book" transform="translate(-48)">
    <g id="Group_28" data-name="Group 28" transform="translate(48)">
      <path id="Path_18" data-name="Path 18" d="M62.423,2.308H60.692V.577A.577.577,0,0,0,60.115,0H49.731A1.733,1.733,0,0,0,48,1.731V16.154a2.31,2.31,0,0,0,2.308,2.308H62.423A.577.577,0,0,0,63,17.885v-15A.577.577,0,0,0,62.423,2.308ZM59.538,14.423a.577.577,0,0,1-.577.577H52.038a.577.577,0,0,1-.577-.577V13.269a2.888,2.888,0,0,1,2.885-2.885h2.308a2.887,2.887,0,0,1,2.885,2.885Zm-6.346-7.5A2.308,2.308,0,1,1,55.5,9.231,2.31,2.31,0,0,1,53.192,6.923Zm6.346-4.615H49.731a.577.577,0,0,1,0-1.154h9.808Z" transform="translate(-48)"/>
    </g>
  </g>
</svg>
