<svg xmlns="http://www.w3.org/2000/svg" width="96.281" height="96.281" viewBox="0 0 96.281 96.281">
  <g id="dry" transform="translate(0)">
    <g id="Group_126" data-name="Group 126" transform="translate(0)">
      <path id="Path_210" data-name="Path 210" d="M94.871,367.412H83.183a16.979,16.979,0,0,0,2.016-1.723,15.219,15.219,0,0,0,4.426-8.454,9.161,9.161,0,0,0-2.362-8,8.975,8.975,0,0,0-6.927-2.462,1.41,1.41,0,1,0,.145,2.817,6.187,6.187,0,0,1,4.788,1.64,6.418,6.418,0,0,1,1.563,5.6,13.176,13.176,0,0,1-10.486,10.486,8.771,8.771,0,0,1-1.289.09,6,6,0,0,1-4.316-1.653,6.416,6.416,0,0,1-1.562-5.6,12.386,12.386,0,0,1,3.63-6.859,13.881,13.881,0,0,1,2.205-1.8,1.41,1.41,0,1,0-1.548-2.358,16.7,16.7,0,0,0-2.653,2.166,17.067,17.067,0,0,0-1.363,1.539,8.293,8.293,0,0,0-2.107-3.6C63.379,345.271,56,346.2,50.894,351.3a16.813,16.813,0,0,0-1.355,1.531,8.224,8.224,0,0,0-2.087-3.6,9.161,9.161,0,0,0-8-2.36A15.219,15.219,0,0,0,31,351.3a17.07,17.07,0,0,0-1.375,1.556,8.233,8.233,0,0,0-2.093-3.621c-3.211-3.211-8.826-3.29-13.655-.192A1.41,1.41,0,0,0,15.4,351.42c3.7-2.376,7.872-2.453,10.137-.188,2.866,2.868,1.939,8.459-2.066,12.463a12.391,12.391,0,0,1-6.857,3.628,8.786,8.786,0,0,1-1.286.09,6,6,0,0,1-4.318-1.653c-2.267-2.265-2.189-6.433.188-10.136A1.41,1.41,0,1,0,8.825,354.1C5.832,358.761,5.8,364.156,8.7,367.412H1.41A1.41,1.41,0,0,0,0,368.823v7.6a1.41,1.41,0,0,0,1.41,1.41h93.46a1.41,1.41,0,0,0,1.41-1.41v-7.6a1.41,1.41,0,0,0-1.41-1.41ZM52.889,353.3a11.9,11.9,0,0,1,8.09-3.73,6.037,6.037,0,0,1,4.372,1.665,6.417,6.417,0,0,1,1.563,5.6,13.176,13.176,0,0,1-10.486,10.486,8.763,8.763,0,0,1-1.286.09,6,6,0,0,1-4.318-1.653c-2.866-2.866-1.94-8.457,2.065-12.462ZM33,353.3a12.39,12.39,0,0,1,6.858-3.628,8.816,8.816,0,0,1,1.246-.091,6.012,6.012,0,0,1,4.357,1.654c2.866,2.866,1.94,8.457-2.065,12.462a12.1,12.1,0,0,1-7.683,3.718H34.9a5.92,5.92,0,0,1-3.973-1.653,6.417,6.417,0,0,1-1.563-5.6A12.389,12.389,0,0,1,33,353.3ZM93.461,375.01H2.821v-4.777h90.64Z" transform="translate(0 -281.549)" fill="#fff"/>
      <path id="Path_211" data-name="Path 211" d="M283.33,391.837a1.406,1.406,0,0,0,1-.413.673.673,0,0,1,.447-.22,3.572,3.572,0,0,0,2.737-2.737.774.774,0,0,1,.667-.667,3.572,3.572,0,0,0,2.737-2.737.677.677,0,0,1,.221-.448,1.41,1.41,0,0,0-1.995-1.995,3.4,3.4,0,0,0-.966,1.771.775.775,0,0,1-.668.668,3.572,3.572,0,0,0-2.737,2.737.774.774,0,0,1-.667.667,3.393,3.393,0,0,0-1.771.965,1.411,1.411,0,0,0,1,2.408Z" transform="translate(-228.905 -310.334)" fill="#fff"/>
      <path id="Path_212" data-name="Path 212" d="M390.03,388.463a3.393,3.393,0,0,0-1.771.965,1.41,1.41,0,0,0,1.995,1.994.673.673,0,0,1,.447-.22,3.572,3.572,0,0,0,2.737-2.736.774.774,0,0,1,.667-.667,3.572,3.572,0,0,0,2.737-2.737.676.676,0,0,1,.221-.448,1.41,1.41,0,0,0-1.995-1.995,3.4,3.4,0,0,0-.966,1.771.775.775,0,0,1-.668.668A3.572,3.572,0,0,0,390.7,387.8a.774.774,0,0,1-.667.668Z" transform="translate(-314.912 -310.333)" fill="#fff"/>
      <path id="Path_213" data-name="Path 213" d="M72.611,391.424a.673.673,0,0,1,.447-.22,3.572,3.572,0,0,0,2.737-2.737.774.774,0,0,1,.667-.667,3.572,3.572,0,0,0,2.737-2.737.676.676,0,0,1,.221-.448,1.41,1.41,0,1,0-1.994-1.995,3.4,3.4,0,0,0-.966,1.771.775.775,0,0,1-.668.668,3.572,3.572,0,0,0-2.737,2.737.774.774,0,0,1-.667.667,3.393,3.393,0,0,0-1.771.965,1.41,1.41,0,0,0,1.995,1.995Z" transform="translate(-57.002 -310.334)" fill="#fff"/>
      <path id="Path_214" data-name="Path 214" d="M177.542,391.837a1.406,1.406,0,0,0,1-.413.673.673,0,0,1,.447-.22,3.572,3.572,0,0,0,2.737-2.737.774.774,0,0,1,.667-.667,3.572,3.572,0,0,0,2.737-2.737.676.676,0,0,1,.221-.448,1.41,1.41,0,1,0-1.994-1.995,3.4,3.4,0,0,0-.966,1.771.775.775,0,0,1-.668.668,3.572,3.572,0,0,0-2.737,2.737.774.774,0,0,1-.667.667,3.393,3.393,0,0,0-1.771.965,1.411,1.411,0,0,0,1,2.408Z" transform="translate(-143.01 -310.334)" fill="#fff"/>
      <path id="Path_215" data-name="Path 215" d="M205.609,56.751a1.41,1.41,0,0,0-1.951.415,10.142,10.142,0,1,0,6.114-4.346,1.41,1.41,0,1,0,.668,2.74,7.329,7.329,0,1,1-4.417,3.142A1.41,1.41,0,0,0,205.609,56.751Z" transform="translate(-164.038 -42.653)" fill="#fff"/>
      <path id="Path_216" data-name="Path 216" d="M249.91,6.62a1.41,1.41,0,0,0,1.41-1.41V1.41a1.41,1.41,0,0,0-2.821,0v3.8A1.41,1.41,0,0,0,249.91,6.62Z" transform="translate(-201.77)" fill="#fff"/>
      <path id="Path_217" data-name="Path 217" d="M201.089,18.667a1.41,1.41,0,1,0,2.443-1.41l-1.9-3.29a1.41,1.41,0,0,0-2.443,1.41Z" transform="translate(-161.578 -10.768)" fill="#fff"/>
      <path id="Path_218" data-name="Path 218" d="M163.471,52.128l3.29,1.9a1.41,1.41,0,0,0,1.41-2.443l-3.29-1.9a1.41,1.41,0,0,0-1.41,2.443Z" transform="translate(-132.158 -40.188)" fill="#fff"/>
      <path id="Path_219" data-name="Path 219" d="M150.914,101.817h3.8a1.41,1.41,0,0,0,0-2.821h-3.8a1.41,1.41,0,0,0,0,2.821Z" transform="translate(-121.39 -80.38)" fill="#fff"/>
      <path id="Path_220" data-name="Path 220" d="M168.688,139.1a1.41,1.41,0,0,0-1.927-.516l-3.29,1.9a1.41,1.41,0,1,0,1.41,2.443l3.29-1.9A1.41,1.41,0,0,0,168.688,139.1Z" transform="translate(-132.158 -112.366)" fill="#fff"/>
      <path id="Path_221" data-name="Path 221" d="M199.706,173.153a1.41,1.41,0,0,0,1.927-.516l1.9-3.29a1.41,1.41,0,0,0-2.443-1.41l-1.9,3.29A1.41,1.41,0,0,0,199.706,173.153Z" transform="translate(-161.579 -135.783)" fill="#fff"/>
      <path id="Path_222" data-name="Path 222" d="M249.91,184.409a1.41,1.41,0,0,0,1.41-1.41v-3.8a1.41,1.41,0,0,0-2.821,0V183A1.41,1.41,0,0,0,249.91,184.409Z" transform="translate(-201.77 -144.356)" fill="#fff"/>
      <path id="Path_223" data-name="Path 223" d="M290.528,167.936a1.41,1.41,0,0,0-2.443,1.41l1.9,3.29a1.41,1.41,0,0,0,2.443-1.41Z" transform="translate(-233.757 -135.783)" fill="#fff"/>
      <path id="Path_224" data-name="Path 224" d="M317.44,141.023l3.29,1.9a1.41,1.41,0,1,0,1.41-2.443l-3.29-1.9a1.41,1.41,0,0,0-1.41,2.443Z" transform="translate(-257.173 -112.366)" fill="#fff"/>
      <path id="Path_225" data-name="Path 225" d="M327.293,100.406a1.41,1.41,0,0,0,1.41,1.41h3.8a1.41,1.41,0,1,0,0-2.821h-3.8A1.41,1.41,0,0,0,327.293,100.406Z" transform="translate(-265.746 -80.38)" fill="#fff"/>
      <path id="Path_226" data-name="Path 226" d="M318.147,54.217a1.4,1.4,0,0,0,.7-.189l3.29-1.9a1.41,1.41,0,1,0-1.41-2.443l-3.29,1.9a1.41,1.41,0,0,0,.707,2.632Z" transform="translate(-257.173 -40.189)" fill="#fff"/>
      <path id="Path_227" data-name="Path 227" d="M288.6,19.183a1.41,1.41,0,0,0,1.927-.516l1.9-3.29a1.41,1.41,0,1,0-2.443-1.41l-1.9,3.29A1.411,1.411,0,0,0,288.6,19.183Z" transform="translate(-233.757 -10.768)" fill="#fff"/>
      <path id="Path_228" data-name="Path 228" d="M333.9,236.778a1.41,1.41,0,0,0-2.821,0,.759.759,0,0,1-.176.522,3.662,3.662,0,0,0,0,3.969.861.861,0,0,1,0,1.042,3.66,3.66,0,0,0,0,3.968.861.861,0,0,1,0,1.042,3.481,3.481,0,0,0-.584,1.984,1.41,1.41,0,0,0,2.821,0,.758.758,0,0,1,.175-.521,3.66,3.66,0,0,0,0-3.968.861.861,0,0,1,0-1.042,3.66,3.66,0,0,0,0-3.968.862.862,0,0,1,0-1.043A3.482,3.482,0,0,0,333.9,236.778Z" transform="translate(-268.206 -191.107)" fill="#fff"/>
      <path id="Path_229" data-name="Path 229" d="M249.05,236.778a1.41,1.41,0,1,0-2.821,0,.759.759,0,0,1-.176.522,3.662,3.662,0,0,0,0,3.968.862.862,0,0,1,0,1.042,3.66,3.66,0,0,0,0,3.968.861.861,0,0,1,0,1.042,3.478,3.478,0,0,0-.584,1.984,1.41,1.41,0,0,0,2.821,0,.758.758,0,0,1,.175-.521,3.66,3.66,0,0,0,0-3.968.861.861,0,0,1,0-1.042,3.661,3.661,0,0,0,0-3.968.863.863,0,0,1,0-1.043A3.484,3.484,0,0,0,249.05,236.778Z" transform="translate(-199.31 -191.107)" fill="#fff"/>
      <path id="Path_230" data-name="Path 230" d="M164.2,236.778a1.41,1.41,0,0,0-2.821,0,.759.759,0,0,1-.176.522,3.662,3.662,0,0,0,0,3.968.862.862,0,0,1,0,1.042,3.66,3.66,0,0,0,0,3.968.861.861,0,0,1,0,1.042,3.479,3.479,0,0,0-.584,1.984,1.41,1.41,0,0,0,2.821,0,.758.758,0,0,1,.175-.521,3.66,3.66,0,0,0,0-3.968.861.861,0,0,1,0-1.042,3.661,3.661,0,0,0,0-3.968.863.863,0,0,1,0-1.043A3.484,3.484,0,0,0,164.2,236.778Z" transform="translate(-130.412 -191.107)" fill="#fff"/>
    </g>
  </g>
</svg>
