<svg xmlns="http://www.w3.org/2000/svg" width="64.695" height="60" viewBox="0 0 64.695 60">
  <g id="email_3_" data-name="email (3)" transform="translate(0 -16.43)">
    <path id="Path_206" data-name="Path 206" d="M64.215,41.284h0l-8.261-5.477V17.5a1.072,1.072,0,0,0-1.071-1.071H9.81A1.072,1.072,0,0,0,8.739,17.5V35.808L.479,41.284h0a1.07,1.07,0,0,0-.48.893V75.359A1.072,1.072,0,0,0,1.071,76.43H63.623a1.072,1.072,0,0,0,1.071-1.071V42.177A1.07,1.07,0,0,0,64.215,41.284ZM8.739,45.031,5.378,43.248H8.739Zm-6.6-1.073,24.64,13.071L2.143,73.362Zm30.2,11.954L60.068,74.287H4.626L32.347,55.912Zm5.564,1.117L62.551,43.958v29.4L37.911,57.029ZM55.954,43.248h3.362l-3.362,1.784Zm4.114-2.143H55.954V38.378ZM53.811,18.573v27.6L35.878,55.681l-2.939-1.948a1.071,1.071,0,0,0-1.184,0l-2.939,1.948L10.882,46.168v-27.6H53.811ZM8.739,41.105H4.627L8.739,38.38Z" transform="translate(0 0)" fill="#de3c4b"/>
    <path id="Path_207" data-name="Path 207" d="M168.606,96.15H177a1.053,1.053,0,0,0,0-2.107h-8.392a7.347,7.347,0,0,1-7.338-7.338v-.311a7.338,7.338,0,1,1,14.677,0v.777a1.589,1.589,0,0,1-3.177,0V85.695a4.558,4.558,0,1,0-1.553,3.419,3.694,3.694,0,0,0,6.836-1.943v-.777a9.445,9.445,0,1,0-18.89,0V86.7A9.455,9.455,0,0,0,168.606,96.15Zm-.389-8.012a2.443,2.443,0,1,1,2.443-2.443A2.446,2.446,0,0,1,168.217,88.138Z" transform="translate(-136.259 -52.02)" fill="#de3c4b"/>
  </g>
</svg>
