<svg xmlns="http://www.w3.org/2000/svg" width="55.968" height="55" viewBox="0 0 55.968 55">
  <g id="Group_130" data-name="Group 130" transform="translate(-667 -3128)">
    <g id="Ellipse_10" data-name="Ellipse 10" transform="translate(667 3128)" fill="#0c1e58" stroke="#707070" stroke-width="1" opacity="0.042">
      <circle cx="27.5" cy="27.5" r="27.5" stroke="none"/>
      <circle cx="27.5" cy="27.5" r="27" fill="none"/>
    </g>
    <g id="shop_1_" data-name="shop (1)" transform="translate(682 3110.668)">
      <g id="Group_111" data-name="Group 111" transform="translate(0 37.34)">
        <g id="Group_110" data-name="Group 110" transform="translate(0 0)">
          <path id="Path_131" data-name="Path 131" d="M40.908,47.917l-.028-.154c0-.024-.008-.048-.012-.071l-2.873-6.939V37.34H2.926v3.414L.1,47.692c-.006.028-.01.055-.015.082l-.026.143A4.94,4.94,0,0,0,0,48.679a4.874,4.874,0,0,0,2.56,4.293v19.36H38.407V52.972a4.877,4.877,0,0,0,2.56-4.293A4.939,4.939,0,0,0,40.908,47.917Zm-1.929-.335H32.707l-.754-5.068h4.961ZM4.633,39.047H36.288v1.707H4.633Zm26.6,10.242.092.619-.505.672a3.17,3.17,0,0,1-5.073,0l-.515-.686-.03-.605Zm-6.115-1.707-.249-5.068h5.355l.755,5.068ZM23.5,49.288h0l.03.619-.506.673a3.17,3.17,0,0,1-5.074,0l-.518-.691.03-.6Zm-5.951-1.706.256-5.068h5.363l.248,5.068Zm-7.55,0,.745-5.068h5.353l-.258,5.068Zm5.754,1.707-.031.626-.5.666a3.17,3.17,0,0,1-5.073,0l-.493-.656.094-.636Zm-11.7-6.774H9.014l-.745,5.068H1.988ZM1.765,49.288H8.019l-.134.663-.471.628a3.171,3.171,0,0,1-5.648-1.292ZM33.286,70.627H26.457V64.651h.854a.853.853,0,1,0,0-1.705h-.854V56.969h6.829Zm3.413,0H34.993V55.264H24.751V70.627H4.267V53.518a4.877,4.877,0,0,0,4.511-1.913,4.878,4.878,0,0,0,7.8,0,4.876,4.876,0,0,0,7.8,0,4.878,4.878,0,0,0,7.8,0A4.877,4.877,0,0,0,36.7,53.518V70.627Zm-.61-18.778a3.146,3.146,0,0,1-2.536-1.269l-.5-.659-.1-.633H39.2A3.174,3.174,0,0,1,36.089,51.849Z" transform="translate(0 -37.34)" fill="#de3c4b"/>
        </g>
      </g>
      <g id="Group_113" data-name="Group 113" transform="translate(5.974 55.264)">
        <g id="Group_112" data-name="Group 112">
          <path id="Path_132" data-name="Path 132" d="M74.656,261.348V273.3H91.727V261.348ZM90.019,271.59H76.364v-8.537H90.019Z" transform="translate(-74.656 -261.348)" fill="#de3c4b"/>
        </g>
      </g>
      <g id="Group_115" data-name="Group 115" transform="translate(17.063 61.238)">
        <g id="Group_114" data-name="Group 114" transform="translate(0 0)">
          <path id="Path_133" data-name="Path 133" d="M215.81,336a.847.847,0,0,0-.6.25l-1.707,1.708a.853.853,0,0,0,1.206,1.205l1.707-1.705a.854.854,0,0,0-.6-1.458Z" transform="translate(-213.25 -336.004)" fill="#de3c4b"/>
        </g>
      </g>
      <g id="Group_117" data-name="Group 117" transform="translate(13.649 57.824)">
        <g id="Group_116" data-name="Group 116">
          <path id="Path_134" data-name="Path 134" d="M176.553,293.348a.847.847,0,0,0-.6.25l-5.121,5.12a.853.853,0,1,0,1.206,1.206l5.121-5.12a.853.853,0,0,0-.6-1.457Z" transform="translate(-170.578 -293.348)" fill="#de3c4b"/>
        </g>
      </g>
    </g>
  </g>
</svg>
