<svg xmlns="http://www.w3.org/2000/svg" width="87.793" height="61" viewBox="0 0 87.793 61">
  <g id="Group_137" data-name="Group 137" transform="translate(-465 -1790)">
    <circle id="Ellipse_4" data-name="Ellipse 4" cx="27.5" cy="27.5" r="27.5" transform="translate(465 1790)" fill="#f4f5f7"/>
    <g id="manufacture_1_" data-name="manufacture (1)" transform="translate(488 1791.555)">
      <path id="Path_37" data-name="Path 37" d="M1.045,24.958h5.8A15.542,15.542,0,0,0,8.315,28.5l-4.1,4.1a1.046,1.046,0,0,0,0,1.479l4.433,4.435a1.046,1.046,0,0,0,1.478,0l4.1-4.1a15.532,15.532,0,0,0,3.54,1.472v5.8a1.045,1.045,0,0,0,1.045,1.045h6.27a1.045,1.045,0,0,0,1.045-1.045v-5.8a15.532,15.532,0,0,0,3.54-1.472l4.1,4.1a1.076,1.076,0,0,0,1.478,0l4.434-4.435a1.046,1.046,0,0,0,0-1.479l-4.1-4.1a15.542,15.542,0,0,0,1.472-3.541h5.8a1.045,1.045,0,0,0,1.045-1.045v-6.27A1.045,1.045,0,0,0,42.847,16.6h-5.8a15.547,15.547,0,0,0-1.472-3.541l4.1-4.1a1.046,1.046,0,0,0,0-1.479L35.248,3.042a1.045,1.045,0,0,0-1.478,0l-4.1,4.1a15.576,15.576,0,0,0-3.54-1.472v-5.8a1.045,1.045,0,0,0-1.045-1.045h-6.27A1.045,1.045,0,0,0,17.766-.123v5.8a15.576,15.576,0,0,0-3.54,1.472l-4.1-4.1a1.076,1.076,0,0,0-1.478,0L4.21,7.477a1.046,1.046,0,0,0,0,1.479l4.1,4.1A15.547,15.547,0,0,0,6.843,16.6h-5.8A1.045,1.045,0,0,0,0,17.643v6.27A1.045,1.045,0,0,0,1.045,24.958Zm1.045-6.27H7.66a1.045,1.045,0,0,0,1.021-.821,13.445,13.445,0,0,1,1.831-4.4,1.045,1.045,0,0,0-.141-1.3L6.427,8.216,9.383,5.259,13.326,9.2a1.045,1.045,0,0,0,1.3.142,13.467,13.467,0,0,1,4.4-1.831,1.046,1.046,0,0,0,.821-1.021V.922h4.18v5.57a1.046,1.046,0,0,0,.821,1.021,13.466,13.466,0,0,1,4.4,1.831,1.045,1.045,0,0,0,1.3-.142l3.943-3.944,2.956,2.957-3.943,3.943a1.045,1.045,0,0,0-.141,1.3,13.442,13.442,0,0,1,1.83,4.4,1.046,1.046,0,0,0,1.021.822H41.8v4.18H36.231a1.046,1.046,0,0,0-1.021.821,13.429,13.429,0,0,1-1.83,4.4,1.046,1.046,0,0,0,.141,1.3l3.944,3.943L34.509,36.3l-3.943-3.944a1.046,1.046,0,0,0-1.3-.141,13.435,13.435,0,0,1-4.4,1.831,1.045,1.045,0,0,0-.823,1.021v5.57h-4.18v-5.57a1.045,1.045,0,0,0-.823-1.021,13.435,13.435,0,0,1-4.4-1.831,1.046,1.046,0,0,0-1.3.141L9.383,36.3,6.428,33.341,10.371,29.4a1.045,1.045,0,0,0,.141-1.3,13.449,13.449,0,0,1-1.831-4.4,1.044,1.044,0,0,0-1.021-.821H2.09Zm0,0" fill="#de3c4b"/>
      <path id="Path_38" data-name="Path 38" d="M138.36,145.553a8.36,8.36,0,1,0-8.36-8.36A8.36,8.36,0,0,0,138.36,145.553Zm0-14.631a6.27,6.27,0,1,1-6.27,6.27A6.271,6.271,0,0,1,138.36,130.922Zm0,0" transform="translate(-116.414 -116.414)" fill="#de3c4b"/>
      <path id="Path_39" data-name="Path 39" d="M111.5,121.823a11.5,11.5,0,1,0-11.5-11.5A11.5,11.5,0,0,0,111.5,121.823Zm0-20.9a9.405,9.405,0,1,1-9.405,9.405A9.405,9.405,0,0,1,111.5,100.922Zm0,0" transform="translate(-89.549 -89.549)" fill="#de3c4b"/>
      <path id="Path_40" data-name="Path 40" d="M59.568,297.643v-8.36a1.045,1.045,0,0,0-1.045-1.045h-2.09v-8.36a1.045,1.045,0,0,0-1.045-1.045H45.982a1.045,1.045,0,0,0-1.045,1.045v8.36H39.712a1.045,1.045,0,0,0-1.045,1.045v8.36H5.225A5.232,5.232,0,0,0,0,302.868v2.09a5.231,5.231,0,0,0,5.225,5.225H59.568a5.231,5.231,0,0,0,5.225-5.225v-2.09A5.232,5.232,0,0,0,59.568,297.643Zm-2.09,0H50.162v-7.315h7.315Zm-10.45-16.721h7.315v7.315H47.027Zm-6.27,9.405h7.315v7.315H40.757ZM62.7,304.958a3.135,3.135,0,0,1-3.135,3.135H5.225a3.135,3.135,0,0,1-3.135-3.135v-2.09a3.135,3.135,0,0,1,3.135-3.135H59.568a3.135,3.135,0,0,1,3.135,3.135Zm0,0" transform="translate(0 -250.739)" fill="#de3c4b"/>
      <path id="Path_41" data-name="Path 41" d="M283.135,488.832a3.135,3.135,0,1,0,3.135,3.135A3.135,3.135,0,0,0,283.135,488.832Zm0,4.18a1.045,1.045,0,1,1,1.045-1.045A1.045,1.045,0,0,1,283.135,493.012Zm0,0" transform="translate(-250.739 -438.793)" fill="#de3c4b"/>
      <path id="Path_42" data-name="Path 42" d="M183.135,488.832a3.135,3.135,0,1,0,3.135,3.135A3.135,3.135,0,0,0,183.135,488.832Zm0,4.18a1.045,1.045,0,1,1,1.045-1.045A1.045,1.045,0,0,1,183.135,493.012Zm0,0" transform="translate(-161.189 -438.793)" fill="#de3c4b"/>
      <path id="Path_43" data-name="Path 43" d="M383.135,488.832a3.135,3.135,0,1,0,3.135,3.135A3.135,3.135,0,0,0,383.135,488.832Zm0,4.18a1.045,1.045,0,1,1,1.045-1.045A1.045,1.045,0,0,1,383.135,493.012Zm0,0" transform="translate(-340.288 -438.793)" fill="#de3c4b"/>
      <path id="Path_44" data-name="Path 44" d="M83.135,488.832a3.135,3.135,0,1,0,3.135,3.135A3.135,3.135,0,0,0,83.135,488.832Zm0,4.18a1.045,1.045,0,1,1,1.045-1.045A1.045,1.045,0,0,1,83.135,493.012Zm0,0" transform="translate(-71.64 -438.793)" fill="#de3c4b"/>
      <path id="Path_45" data-name="Path 45" d="M483.135,488.832a3.135,3.135,0,1,0,3.135,3.135A3.135,3.135,0,0,0,483.135,488.832Zm0,4.18a1.045,1.045,0,1,1,1.045-1.045A1.045,1.045,0,0,1,483.135,493.012Zm0,0" transform="translate(-429.838 -438.793)" fill="#de3c4b"/>
    </g>
  </g>
</svg>
