<svg xmlns="http://www.w3.org/2000/svg" width="82.368" height="67" viewBox="0 0 82.368 67">
  <g id="Group_139" data-name="Group 139" transform="translate(-961 -1784)">
    <circle id="Ellipse_5" data-name="Ellipse 5" cx="27.5" cy="27.5" r="27.5" transform="translate(961 1784)" fill="#f4f5f7"/>
    <g id="moving-truck_1_" data-name="moving-truck (1)" transform="translate(974 1755.387)">
      <g id="Group_36" data-name="Group 36" transform="translate(28.181 36)">
        <g id="Group_35" data-name="Group 35" transform="translate(0 0)">
          <path id="Path_46" data-name="Path 46" d="M224.258,36H209.084a1.084,1.084,0,0,0,0,2.168h15.174a1.084,1.084,0,1,0,0-2.168Z" transform="translate(-208 -36)" fill="#de3c4b"/>
        </g>
      </g>
      <g id="Group_38" data-name="Group 38" transform="translate(37.935 36)">
        <g id="Group_37" data-name="Group 37" transform="translate(0 0)">
          <path id="Path_47" data-name="Path 47" d="M281.084,36A1.084,1.084,0,0,0,280,37.084V42.5a1.084,1.084,0,1,0,2.168,0V37.084A1.084,1.084,0,0,0,281.084,36Z" transform="translate(-280 -36)" fill="#de3c4b"/>
        </g>
      </g>
      <g id="Group_40" data-name="Group 40" transform="translate(33.6 41.419)">
        <g id="Group_39" data-name="Group 39">
          <path id="Path_48" data-name="Path 48" d="M253.419,76h-4.335a1.084,1.084,0,1,0,0,2.168h4.335a1.084,1.084,0,1,0,0-2.168Z" transform="translate(-248 -76)" fill="#de3c4b"/>
        </g>
      </g>
      <g id="Group_42" data-name="Group 42" transform="translate(33.6 36)">
        <g id="Group_41" data-name="Group 41" transform="translate(0 0)">
          <path id="Path_49" data-name="Path 49" d="M249.084,36A1.084,1.084,0,0,0,248,37.084V42.5a1.084,1.084,0,0,0,2.168,0V37.084A1.084,1.084,0,0,0,249.084,36Z" transform="translate(-248 -36)" fill="#de3c4b"/>
        </g>
      </g>
      <g id="Group_44" data-name="Group 44" transform="translate(15.174 57.677)">
        <g id="Group_43" data-name="Group 43">
          <path id="Path_50" data-name="Path 50" d="M126.09,196H113.084a1.084,1.084,0,1,0,0,2.168H126.09a1.084,1.084,0,1,0,0-2.168Z" transform="translate(-112 -196)" fill="#de3c4b"/>
        </g>
      </g>
      <g id="Group_46" data-name="Group 46" transform="translate(43.355 55.51)">
        <g id="Group_45" data-name="Group 45" transform="translate(0 0)">
          <path id="Path_51" data-name="Path 51" d="M321.084,180A1.084,1.084,0,0,0,320,181.084V199.51a1.084,1.084,0,1,0,2.168,0V181.084A1.084,1.084,0,0,0,321.084,180Z" transform="translate(-320 -180)" fill="#de3c4b"/>
        </g>
      </g>
      <g id="Group_48" data-name="Group 48" transform="translate(63.971 82.606)">
        <g id="Group_47" data-name="Group 47" transform="translate(0 0)">
          <path id="Path_52" data-name="Path 52" d="M476.481,380h-3.229a1.084,1.084,0,0,0,0,2.168h3.229a1.084,1.084,0,0,0,0-2.168Z" transform="translate(-472.168 -380)" fill="#de3c4b"/>
        </g>
      </g>
      <g id="Group_50" data-name="Group 50" transform="translate(67.2 82.606)">
        <g id="Group_49" data-name="Group 49" transform="translate(0 0)">
          <path id="Path_53" data-name="Path 53" d="M497.084,380A1.083,1.083,0,0,0,496,381.084v4.336a1.084,1.084,0,0,0,2.168,0v-4.336A1.083,1.083,0,0,0,497.084,380Z" transform="translate(-496 -380)" fill="#de3c4b"/>
        </g>
      </g>
      <g id="Group_52" data-name="Group 52" transform="translate(2.168 86.942)">
        <g id="Group_51" data-name="Group 51">
          <path id="Path_54" data-name="Path 54" d="M24.671,412h0l-7.587.023a1.084,1.084,0,0,0,0,2.168h0l7.587-.023a1.084,1.084,0,0,0,0-2.168Z" transform="translate(-16 -412)" fill="#de3c4b"/>
        </g>
      </g>
      <g id="Group_54" data-name="Group 54" transform="translate(65.032 77.187)">
        <g id="Group_53" data-name="Group 53" transform="translate(0 0)">
          <path id="Path_55" data-name="Path 55" d="M482.168,340h-1.084a1.084,1.084,0,0,0,0,2.168h1.084a1.084,1.084,0,1,0,0-2.168Z" transform="translate(-480 -340)" fill="#de3c4b"/>
        </g>
      </g>
      <g id="Group_56" data-name="Group 56" transform="translate(66.116 69.6)">
        <g id="Group_55" data-name="Group 55">
          <path id="Path_56" data-name="Path 56" d="M489.084,284A1.083,1.083,0,0,0,488,285.084V298.09a1.084,1.084,0,0,0,2.168,0V285.084A1.083,1.083,0,0,0,489.084,284Z" transform="translate(-488 -284)" fill="#de3c4b"/>
        </g>
      </g>
      <g id="Group_58" data-name="Group 58" transform="translate(43.355 55.51)">
        <g id="Group_57" data-name="Group 57" transform="translate(0 0)">
          <path id="Path_57" data-name="Path 57" d="M337.342,180H321.084a1.084,1.084,0,0,0,0,2.168h16.258a1.084,1.084,0,1,0,0-2.168Z" transform="translate(-320 -180)" fill="#de3c4b"/>
        </g>
      </g>
      <g id="Group_60" data-name="Group 60" transform="translate(59.613 55.51)">
        <g id="Group_59" data-name="Group 59" transform="translate(0 0)">
          <path id="Path_58" data-name="Path 58" d="M448.57,194.72l-6.5-14.09a1.084,1.084,0,1,0-1.968.908l6.5,14.09a1.084,1.084,0,0,0,.985.63,1.084,1.084,0,0,0,.983-1.538Z" transform="translate(-439.999 -180)" fill="#de3c4b"/>
        </g>
      </g>
      <g id="Group_62" data-name="Group 62" transform="translate(2.168 82.606)">
        <g id="Group_61" data-name="Group 61" transform="translate(0 0)">
          <path id="Path_59" data-name="Path 59" d="M17.084,380A1.083,1.083,0,0,0,16,381.084v4.4a1.084,1.084,0,0,0,2.168,0v-4.4A1.083,1.083,0,0,0,17.084,380Z" transform="translate(-16 -380)" fill="#de3c4b"/>
        </g>
      </g>
      <g id="Group_64" data-name="Group 64" transform="translate(0 68.516)">
        <g id="Group_63" data-name="Group 63">
          <path id="Path_60" data-name="Path 60" d="M1.084,276A1.083,1.083,0,0,0,0,277.084v14.09a1.084,1.084,0,0,0,2.168,0v-14.09A1.083,1.083,0,0,0,1.084,276Z" transform="translate(0 -276)" fill="#de3c4b"/>
        </g>
      </g>
      <g id="Group_66" data-name="Group 66" transform="translate(0 68.516)">
        <g id="Group_65" data-name="Group 65">
          <path id="Path_61" data-name="Path 61" d="M44.439,276H1.084a1.084,1.084,0,0,0,0,2.168H44.439a1.084,1.084,0,0,0,0-2.168Z" transform="translate(0 -276)" fill="#de3c4b"/>
        </g>
      </g>
      <g id="Group_68" data-name="Group 68" transform="translate(0 82.606)">
        <g id="Group_67" data-name="Group 67" transform="translate(0 0)">
          <path id="Path_62" data-name="Path 62" d="M6.5,380H1.084a1.084,1.084,0,0,0,0,2.168H6.5A1.084,1.084,0,0,0,6.5,380Z" transform="translate(0 -380)" fill="#de3c4b"/>
        </g>
      </g>
      <g id="Group_70" data-name="Group 70" transform="translate(9.755 80.439)">
        <g id="Group_69" data-name="Group 69" transform="translate(0 0)">
          <path id="Path_63" data-name="Path 63" d="M79.587,364a7.587,7.587,0,1,0,7.587,7.587A7.6,7.6,0,0,0,79.587,364Zm0,13.006a5.419,5.419,0,1,1,5.419-5.419A5.426,5.426,0,0,1,79.587,377.006Z" transform="translate(-72 -364)" fill="#de3c4b"/>
        </g>
      </g>
      <g id="Group_72" data-name="Group 72" transform="translate(14.09 84.774)">
        <g id="Group_71" data-name="Group 71">
          <path id="Path_64" data-name="Path 64" d="M107.252,396a3.252,3.252,0,1,0,3.252,3.252A3.256,3.256,0,0,0,107.252,396Zm0,4.335a1.084,1.084,0,1,1,1.084-1.084A1.084,1.084,0,0,1,107.252,400.335Z" transform="translate(-104 -396)" fill="#de3c4b"/>
        </g>
      </g>
      <g id="Group_74" data-name="Group 74" transform="translate(49.858 84.774)">
        <g id="Group_73" data-name="Group 73">
          <path id="Path_65" data-name="Path 65" d="M371.252,396a3.252,3.252,0,1,0,3.252,3.252A3.256,3.256,0,0,0,371.252,396Zm0,4.335a1.084,1.084,0,1,1,1.084-1.084A1.084,1.084,0,0,1,371.252,400.335Z" transform="translate(-368 -396)" fill="#de3c4b"/>
        </g>
      </g>
      <g id="Group_76" data-name="Group 76" transform="translate(45.523 80.439)">
        <g id="Group_75" data-name="Group 75" transform="translate(0 0)">
          <path id="Path_66" data-name="Path 66" d="M343.587,364a7.587,7.587,0,1,0,7.587,7.587A7.6,7.6,0,0,0,343.587,364Zm0,13.006a5.419,5.419,0,1,1,5.419-5.419A5.426,5.426,0,0,1,343.587,377.006Z" transform="translate(-336 -364)" fill="#de3c4b"/>
        </g>
      </g>
      <g id="Group_78" data-name="Group 78" transform="translate(22.761 86.942)">
        <g id="Group_77" data-name="Group 77">
          <path id="Path_67" data-name="Path 67" d="M191.872,412H169.084a1.084,1.084,0,1,0,0,2.168h22.788a1.084,1.084,0,1,0,0-2.168Z" transform="translate(-168 -412)" fill="#de3c4b"/>
        </g>
      </g>
      <g id="Group_80" data-name="Group 80" transform="translate(58.529 86.942)">
        <g id="Group_79" data-name="Group 79">
          <path id="Path_68" data-name="Path 68" d="M441.755,412h-8.671a1.084,1.084,0,0,0,0,2.168h8.671a1.084,1.084,0,0,0,0-2.168Z" transform="translate(-432 -412)" fill="#de3c4b"/>
        </g>
      </g>
      <g id="Group_82" data-name="Group 82" transform="translate(53.11 69.6)">
        <g id="Group_81" data-name="Group 81">
          <path id="Path_69" data-name="Path 69" d="M406.09,284H393.084a1.084,1.084,0,0,0,0,2.168H406.09a1.084,1.084,0,0,0,0-2.168Z" transform="translate(-392 -284)" fill="#de3c4b"/>
        </g>
      </g>
      <g id="Group_84" data-name="Group 84" transform="translate(48.774 65.265)">
        <g id="Group_83" data-name="Group 83">
          <path id="Path_70" data-name="Path 70" d="M365.419,256.335a3.256,3.256,0,0,1-3.252-3.252,1.084,1.084,0,0,0-2.168,0,5.426,5.426,0,0,0,5.419,5.419,1.084,1.084,0,0,0,0-2.168Z" transform="translate(-360 -252)" fill="#de3c4b"/>
        </g>
      </g>
      <g id="Group_86" data-name="Group 86" transform="translate(48.774 55.51)">
        <g id="Group_85" data-name="Group 85" transform="translate(0 0)">
          <path id="Path_71" data-name="Path 71" d="M361.084,180A1.084,1.084,0,0,0,360,181.084v9.755a1.084,1.084,0,0,0,2.168,0v-9.755A1.084,1.084,0,0,0,361.084,180Z" transform="translate(-360 -180)" fill="#de3c4b"/>
        </g>
      </g>
      <g id="Group_88" data-name="Group 88" transform="translate(43.355 36)">
        <g id="Group_87" data-name="Group 87" transform="translate(0 0)">
          <path id="Path_72" data-name="Path 72" d="M321.084,36A1.084,1.084,0,0,0,320,37.084V69.6a1.084,1.084,0,0,0,2.168,0V37.084A1.084,1.084,0,0,0,321.084,36Z" transform="translate(-320 -36)" fill="#de3c4b"/>
        </g>
      </g>
      <g id="Group_90" data-name="Group 90" transform="translate(28.181 36)">
        <g id="Group_89" data-name="Group 89" transform="translate(0 0)">
          <path id="Path_73" data-name="Path 73" d="M209.084,36A1.084,1.084,0,0,0,208,37.084V69.6a1.084,1.084,0,0,0,2.168,0V37.084A1.084,1.084,0,0,0,209.084,36Z" transform="translate(-208 -36)" fill="#de3c4b"/>
        </g>
      </g>
      <g id="Group_92" data-name="Group 92" transform="translate(15.174 44.671)">
        <g id="Group_91" data-name="Group 91" transform="translate(0 0)">
          <path id="Path_74" data-name="Path 74" d="M113.084,100A1.084,1.084,0,0,0,112,101.084v23.845a1.084,1.084,0,0,0,2.168,0V101.084A1.084,1.084,0,0,0,113.084,100Z" transform="translate(-112 -100)" fill="#de3c4b"/>
        </g>
      </g>
      <g id="Group_94" data-name="Group 94" transform="translate(21.677 57.677)">
        <g id="Group_93" data-name="Group 93">
          <path id="Path_75" data-name="Path 75" d="M161.084,196A1.084,1.084,0,0,0,160,197.084v3.252a1.084,1.084,0,0,0,2.168,0v-3.252A1.084,1.084,0,0,0,161.084,196Z" transform="translate(-160 -196)" fill="#de3c4b"/>
        </g>
      </g>
      <g id="Group_96" data-name="Group 96" transform="translate(15.174 44.671)">
        <g id="Group_95" data-name="Group 95" transform="translate(0 0)">
          <path id="Path_76" data-name="Path 76" d="M126.09,100H113.084a1.084,1.084,0,1,0,0,2.168H126.09a1.084,1.084,0,0,0,0-2.168Z" transform="translate(-112 -100)" fill="#de3c4b"/>
        </g>
      </g>
      <g id="Group_98" data-name="Group 98" transform="translate(21.677 44.671)">
        <g id="Group_97" data-name="Group 97" transform="translate(0 0)">
          <path id="Path_77" data-name="Path 77" d="M161.084,100A1.084,1.084,0,0,0,160,101.084v2.168a1.084,1.084,0,0,0,2.168,0v-2.168A1.084,1.084,0,0,0,161.084,100Z" transform="translate(-160 -100)" fill="#de3c4b"/>
        </g>
      </g>
      <g id="Group_100" data-name="Group 100" transform="translate(2.168 52.258)">
        <g id="Group_99" data-name="Group 99" transform="translate(0 0)">
          <path id="Path_78" data-name="Path 78" d="M17.084,156A1.084,1.084,0,0,0,16,157.084v16.258a1.084,1.084,0,1,0,2.168,0V157.084A1.084,1.084,0,0,0,17.084,156Z" transform="translate(-16 -156)" fill="#de3c4b"/>
        </g>
      </g>
      <g id="Group_102" data-name="Group 102" transform="translate(2.168 52.258)">
        <g id="Group_101" data-name="Group 101" transform="translate(0 0)">
          <path id="Path_79" data-name="Path 79" d="M30.09,156H17.084a1.084,1.084,0,1,0,0,2.168H30.09a1.084,1.084,0,1,0,0-2.168Z" transform="translate(-16 -156)" fill="#de3c4b"/>
        </g>
      </g>
      <g id="Group_104" data-name="Group 104" transform="translate(6.503 52.258)">
        <g id="Group_103" data-name="Group 103" transform="translate(0 0)">
          <path id="Path_80" data-name="Path 80" d="M49.084,156A1.084,1.084,0,0,0,48,157.084v3.252a1.084,1.084,0,0,0,2.168,0v-3.252A1.084,1.084,0,0,0,49.084,156Z" transform="translate(-48 -156)" fill="#de3c4b"/>
        </g>
      </g>
      <g id="Group_106" data-name="Group 106" transform="translate(6.503 55.51)">
        <g id="Group_105" data-name="Group 105" transform="translate(0 0)">
          <path id="Path_81" data-name="Path 81" d="M53.419,180H49.084a1.084,1.084,0,0,0,0,2.168h4.335a1.084,1.084,0,0,0,0-2.168Z" transform="translate(-48 -180)" fill="#de3c4b"/>
        </g>
      </g>
      <g id="Group_108" data-name="Group 108" transform="translate(10.839 52.258)">
        <g id="Group_107" data-name="Group 107" transform="translate(0 0)">
          <path id="Path_82" data-name="Path 82" d="M81.084,156A1.084,1.084,0,0,0,80,157.084v3.252a1.084,1.084,0,0,0,2.168,0v-3.252A1.084,1.084,0,0,0,81.084,156Z" transform="translate(-80 -156)" fill="#de3c4b"/>
        </g>
      </g>
    </g>
  </g>
</svg>
