<svg xmlns="http://www.w3.org/2000/svg" width="62.847" height="55" viewBox="0 0 62.847 55">
  <g id="Group_133" data-name="Group 133" transform="translate(-1059 -3336)">
    <g id="Ellipse_13" data-name="Ellipse 13" transform="translate(1059 3336)" fill="#0c1e58" stroke="#707070" stroke-width="1" opacity="0.042">
      <circle cx="27.5" cy="27.5" r="27.5" stroke="none"/>
      <circle cx="27.5" cy="27.5" r="27" fill="none"/>
    </g>
    <g id="storage" transform="translate(1075.067 3340)">
      <g id="Group_118" data-name="Group 118" transform="translate(0 4)">
        <path id="Path_161" data-name="Path 161" d="M46.78,20.373V18.814H43.661V7.9a.779.779,0,0,0-.779-.78H25.729a.779.779,0,0,0-.78.779h0V18.814H22.61V7.9a.779.779,0,0,0-.779-.78H4.678A.779.779,0,0,0,3.9,7.9h0V18.814H1.559V4H0V49.22A.779.779,0,0,0,.779,50h46V48.441H43.661V37.525a.779.779,0,0,0-.779-.78H25.729a.779.779,0,0,0-.78.779h0V48.441H22.61V37.525a.779.779,0,0,0-.779-.78H4.678a.779.779,0,0,0-.78.779h0V48.441H1.559V35.186H46.78V33.627H43.661V22.712a.779.779,0,0,0-.779-.78H25.729a.779.779,0,0,0-.78.779h0V33.627H22.61V22.712a.779.779,0,0,0-.779-.78H4.678a.779.779,0,0,0-.78.779h0V33.627H1.559V20.373ZM32.746,8.678h3.119V11.8H32.746Zm-6.237,0h4.678v3.9a.779.779,0,0,0,.779.78h4.678a.779.779,0,0,0,.78-.779h0v-3.9H42.1V18.814H26.508Zm-14.814,0h3.119V11.8H11.695Zm-6.237,0h4.678v3.9a.779.779,0,0,0,.779.78h4.678a.779.779,0,0,0,.78-.779h0v-3.9h4.678V18.814H5.458ZM32.746,38.305h3.119v3.119H32.746Zm-6.237,0h4.678v3.9a.779.779,0,0,0,.779.78h4.678a.779.779,0,0,0,.78-.779h0v-3.9H42.1V48.441H26.508Zm-14.814,0h3.119v3.119H11.695Zm-6.237,0h4.678v3.9a.779.779,0,0,0,.779.78h4.678a.779.779,0,0,0,.78-.779h0v-3.9h4.678V48.441H5.458ZM32.746,24.271h3.119V27.39H32.746Zm-6.237-.78h4.678v4.678a.779.779,0,0,0,.779.78h4.678a.779.779,0,0,0,.78-.779h0V23.492H42.1V33.627H26.508Zm-14.814,0h3.119V26.61H11.695Zm-6.237,0h4.678v3.9a.779.779,0,0,0,.779.78h4.678a.779.779,0,0,0,.78-.779h0v-3.9h4.678V33.627H5.458Z" transform="translate(0 -4)" fill="#df4755"/>
      </g>
    </g>
  </g>
</svg>
