<svg xmlns="http://www.w3.org/2000/svg" width="82.246" height="55" viewBox="0 0 82.246 55">
  <g id="Group_131" data-name="Group 131" transform="translate(-1054 -3139)">
    <g id="Ellipse_11" data-name="Ellipse 11" transform="translate(1054 3139)" fill="#0c1e58" stroke="#707070" stroke-width="1" opacity="0.042">
      <circle cx="27.5" cy="27.5" r="27.5" stroke="none"/>
      <circle cx="27.5" cy="27.5" r="27" fill="none"/>
    </g>
    <g id="save-money" transform="translate(1077 3161.47)">
      <path id="Path_137" data-name="Path 137" d="M52.105,330.751l-8.641,4.083a7.038,7.038,0,0,0-6-3.7l-7.977-.219a8.426,8.426,0,0,1-3.625-.936l-.812-.421a14.316,14.316,0,0,0-13.261.014l.051-1.839a1.1,1.1,0,0,0-1.072-1.133l-8.747-.241a1.1,1.1,0,0,0-1.133,1.072L.361,346.624a1.1,1.1,0,0,0,1.072,1.133L10.18,348h.03a1.1,1.1,0,0,0,1.1-1.073l.025-.918,2.272-1.217a3.9,3.9,0,0,1,2.909-.318l13.569,3.808c.024.007.047.012.072.018a14.529,14.529,0,0,0,2.982.308,14.719,14.719,0,0,0,6.148-1.342,1.029,1.029,0,0,0,.137-.075L59.1,334.462a1.1,1.1,0,0,0,.361-1.469A5.572,5.572,0,0,0,52.105,330.751ZM2.6,345.582l.468-16.989,6.541.18-.468,16.99Zm35.7-.289a12.507,12.507,0,0,1-7.648.854l-13.533-3.8a6.1,6.1,0,0,0-4.547.5l-1.161.622.311-11.3a12.125,12.125,0,0,1,12.318-.657l.812.421a10.655,10.655,0,0,0,4.579,1.183l7.977.219a4.838,4.838,0,0,1,4.6,3.855l-11.882-.328a1.1,1.1,0,0,0-.061,2.206l13.113.361H43.2a1.1,1.1,0,0,0,1.1-1.073,7,7,0,0,0-.107-1.431l8.863-4.188.026-.012a3.37,3.37,0,0,1,3.811.534Zm0,0" transform="translate(-0.36 -326.356)" fill="#de3c4b"/>
    </g>
  </g>
</svg>
