<svg xmlns="http://www.w3.org/2000/svg" width="59" height="55" viewBox="0 0 59 55">
  <g id="Group_132" data-name="Group 132" transform="translate(-663 -3344)">
    <g id="Ellipse_12" data-name="Ellipse 12" transform="translate(663 3344)" fill="#0c1e58" stroke="#707070" stroke-width="1" opacity="0.042">
      <circle cx="27.5" cy="27.5" r="27.5" stroke="none"/>
      <circle cx="27.5" cy="27.5" r="27" fill="none"/>
    </g>
    <g id="supply-chain_1_" data-name="supply-chain (1)" transform="translate(665.938 3339.26)">
      <path id="Path_138" data-name="Path 138" d="M266.48,266.823v-1.275l1.668-1.506a.679.679,0,0,0,.172-.764l-.912-2.2a.68.68,0,0,0-.662-.418l-2.244.114-.9-.9.115-2.244a.679.679,0,0,0-.418-.662l-2.2-.912a.679.679,0,0,0-.764.172l-1.506,1.668h-1.275l-1.506-1.668a.679.679,0,0,0-.764-.172l-2.2.912a.679.679,0,0,0-.418.662l.115,2.244-.9.9-2.244-.115a.678.678,0,0,0-.662.418l-.912,2.2a.679.679,0,0,0,.172.764l1.668,1.506v1.275l-1.668,1.506a.679.679,0,0,0-.172.764l.912,2.2a.68.68,0,0,0,.662.418l2.244-.115.9.9-.115,2.244a.679.679,0,0,0,.418.662l2.2.913a.679.679,0,0,0,.764-.172l1.506-1.668h1.275l1.506,1.668a.679.679,0,0,0,.764.172l2.2-.913a.679.679,0,0,0,.418-.662L263.6,272.5l.9-.9,2.244.115a.679.679,0,0,0,.662-.418l.912-2.2a.679.679,0,0,0-.172-.764Zm-.144,3.51-2.067-.106a.68.68,0,0,0-.515.2l-1.328,1.328a.679.679,0,0,0-.2.515l.106,2.067-1.317.546-1.387-1.536a.679.679,0,0,0-.5-.224h-1.878a.679.679,0,0,0-.5.224l-1.387,1.536-1.317-.546.106-2.067a.679.679,0,0,0-.2-.515l-1.328-1.329a.681.681,0,0,0-.515-.2l-2.067.106-.546-1.318,1.536-1.387a.679.679,0,0,0,.224-.5v-1.878a.679.679,0,0,0-.224-.5l-1.536-1.387.546-1.318,2.067.106a.68.68,0,0,0,.515-.2l1.328-1.328a.679.679,0,0,0,.2-.515l-.106-2.067,1.317-.546,1.387,1.536a.679.679,0,0,0,.5.224h1.878a.679.679,0,0,0,.5-.224l1.387-1.536,1.317.546-.106,2.067a.679.679,0,0,0,.2.515l1.328,1.328a.679.679,0,0,0,.515.2l2.067-.106.546,1.317-1.536,1.387a.679.679,0,0,0-.224.5v1.878a.679.679,0,0,0,.224.5l1.536,1.387Z" transform="translate(-212.31 -219.63)" fill="#de3c4b"/>
      <path id="Path_139" data-name="Path 139" d="M316.753,320a4.753,4.753,0,1,0,4.753,4.753A4.753,4.753,0,0,0,316.753,320Zm0,8.148a3.4,3.4,0,1,1,3.4-3.4A3.4,3.4,0,0,1,316.753,328.148Z" transform="translate(-270.876 -278.197)" fill="#de3c4b"/>
      <path id="Path_140" data-name="Path 140" d="M73.593,222.8l-1.336-.245A15.755,15.755,0,0,0,72,225.394h1.358a14.4,14.4,0,0,1,.236-2.6Z" transform="translate(-51.247 -189.023)" fill="#de3c4b"/>
      <path id="Path_141" data-name="Path 141" d="M197.456,416.6a15.569,15.569,0,0,0,3.55.744l.122-1.353a14.207,14.207,0,0,1-3.24-.679Z" transform="translate(-166.054 -365.421)" fill="#de3c4b"/>
      <path id="Path_142" data-name="Path 142" d="M416.041,201.776l1.357-.061a15.585,15.585,0,0,0-.791-4.26l-1.288.432A14.223,14.223,0,0,1,416.041,201.776Z" transform="translate(-365.426 -166.054)" fill="#de3c4b"/>
      <path id="Path_143" data-name="Path 143" d="M210.082,73.354a14.288,14.288,0,0,1,3.889.537l.37-1.307a15.719,15.719,0,0,0-8.518,0l.37,1.307A14.29,14.29,0,0,1,210.082,73.354Z" transform="translate(-173.711 -51.243)" fill="#de3c4b"/>
      <path id="Path_144" data-name="Path 144" d="M320.679,66.864h10.864a.679.679,0,0,0,.679-.679V59.4a.675.675,0,0,0-.072-.3h0l-1.358-2.716a.679.679,0,0,0-.607-.376h-8.148a.679.679,0,0,0-.607.375l-1.358,2.716h0a.675.675,0,0,0-.072.3v6.79A.679.679,0,0,0,320.679,66.864Zm10.185-1.358h-9.506V60.074H323.4v2.037a.679.679,0,0,0,.679.679h4.074a.679.679,0,0,0,.679-.679V60.074h2.037Zm-3.4-5.432v1.358h-2.716V60.074Zm-2.525-1.358.34-1.358h1.656l.339,1.358Zm5.5,0h-1.766l-.34-1.358h1.427Zm-7.988-1.358h1.427l-.34,1.358h-1.766Z" transform="translate(-278.197 -36.605)" fill="#de3c4b"/>
      <path id="Path_145" data-name="Path 145" d="M20.074,32.3V30.938H17.358V17.358h6.79v2.716h1.358v-3.4A.679.679,0,0,0,24.827,16H16.679a.679.679,0,0,0-.679.679V31.618a.679.679,0,0,0,.679.679Z" fill="#de3c4b"/>
      <path id="Path_146" data-name="Path 146" d="M48,48h1.358v1.358H48Z" transform="translate(-29.284 -29.284)" fill="#de3c4b"/>
      <path id="Path_147" data-name="Path 147" d="M80,48h1.358v1.358H80Z" transform="translate(-58.568 -29.284)" fill="#de3c4b"/>
      <path id="Path_148" data-name="Path 148" d="M48,80h1.358v1.358H48Z" transform="translate(-29.284 -58.568)" fill="#de3c4b"/>
      <path id="Path_149" data-name="Path 149" d="M48,112h1.358v1.358H48Z" transform="translate(-29.284 -87.852)" fill="#de3c4b"/>
      <path id="Path_150" data-name="Path 150" d="M48,144h1.358v1.358H48Z" transform="translate(-29.284 -117.136)" fill="#de3c4b"/>
      <path id="Path_151" data-name="Path 151" d="M88.827,80H80.679a.679.679,0,0,0-.679.679v9.506a.679.679,0,0,0,.679.679h8.148a.679.679,0,0,0,.679-.679V80.679A.679.679,0,0,0,88.827,80Zm-.679,9.506h-6.79V81.358h6.79Z" transform="translate(-58.568 -58.568)" fill="#de3c4b"/>
      <path id="Path_152" data-name="Path 152" d="M112,144h1.358v1.358H112Z" transform="translate(-87.852 -117.136)" fill="#de3c4b"/>
      <path id="Path_153" data-name="Path 153" d="M144,144h1.358v1.358H144Z" transform="translate(-117.136 -117.136)" fill="#de3c4b"/>
      <path id="Path_154" data-name="Path 154" d="M112,112h1.358v1.358H112Z" transform="translate(-87.852 -87.852)" fill="#de3c4b"/>
      <path id="Path_155" data-name="Path 155" d="M144,112h1.358v1.358H144Z" transform="translate(-117.136 -87.852)" fill="#de3c4b"/>
      <path id="Path_156" data-name="Path 156" d="M34.185,270.751h-.362a4.074,4.074,0,1,0-6.067,0H27.4a3.4,3.4,0,0,0-3.4,3.4v6.111a2.039,2.039,0,0,0,2.037,2.037v1.358H27.4v-1.358a2.039,2.039,0,0,0,2.037-2.037V278.9a.679.679,0,0,0-.2-.48l-1.159-1.159V275.5H26.716v2.037a.679.679,0,0,0,.2.48l1.159,1.159v1.077a.68.68,0,0,1-.679.679H26.037a.68.68,0,0,1-.679-.679v-6.111a2.039,2.039,0,0,1,2.037-2.037h6.79a2.039,2.039,0,0,1,2.037,2.037v6.111a.68.68,0,0,1-.679.679H34.185a.68.68,0,0,1-.679-.679v-1.077l1.159-1.159a.679.679,0,0,0,.2-.48V275.5H33.506v1.756l-1.159,1.159a.679.679,0,0,0-.2.48v1.358a2.039,2.039,0,0,0,2.037,2.037v1.358h1.358v-1.358a2.039,2.039,0,0,0,2.037-2.037v-6.111A3.4,3.4,0,0,0,34.185,270.751Zm-6.111-2.716a2.716,2.716,0,1,1,2.716,2.716A2.716,2.716,0,0,1,28.074,268.035Z" transform="translate(-7.321 -226.911)" fill="#de3c4b"/>
      <path id="Path_157" data-name="Path 157" d="M112.34,222.124A12.277,12.277,0,0,0,112,225h1.358a10.918,10.918,0,0,1,.3-2.557Z" transform="translate(-87.852 -188.629)" fill="#de3c4b"/>
      <path id="Path_158" data-name="Path 158" d="M196.7,373.92a12.14,12.14,0,0,0,3.6,1l.158-1.349a10.782,10.782,0,0,1-3.194-.886Z" transform="translate(-165.363 -326.409)" fill="#de3c4b"/>
      <path id="Path_159" data-name="Path 159" d="M373.626,201.094l1.356-.079a12.132,12.132,0,0,0-1.06-4.315l-1.237.56A10.78,10.78,0,0,1,373.626,201.094Z" transform="translate(-326.409 -165.363)" fill="#de3c4b"/>
      <path id="Path_160" data-name="Path 160" d="M209.49,113.36a10.822,10.822,0,0,1,3.834.7l.479-1.271a12.271,12.271,0,0,0-8.628,0l.479,1.271A10.822,10.822,0,0,1,209.49,113.36Z" transform="translate(-173.119 -87.854)" fill="#de3c4b"/>
    </g>
  </g>
</svg>
