<svg xmlns="http://www.w3.org/2000/svg" xmlns:xlink="http://www.w3.org/1999/xlink" width="84" height="77" viewBox="0 0 84 77">
  <defs>
    <filter id="Ellipse_3" x="0" y="0" width="77" height="77" filterUnits="userSpaceOnUse">
      <feOffset dy="3" input="SourceAlpha"/>
      <feGaussianBlur stdDeviation="3" result="blur"/>
      <feFlood flood-opacity="0.161"/>
      <feComposite operator="in" in2="blur"/>
      <feComposite in="SourceGraphic"/>
    </filter>
  </defs>
  <g id="Group_138" data-name="Group 138" transform="translate(-710 -1790)">
    <g transform="matrix(1, 0, 0, 1, 710, 1790)" filter="url(#Ellipse_3)">
      <circle id="Ellipse_3-2" data-name="Ellipse 3" cx="29.5" cy="29.5" r="29.5" transform="translate(9 6)" fill="#0c1e58" opacity="0.038"/>
    </g>
    <g id="jaw-crusher" transform="translate(730.004 1777.553)">
      <path id="Path_27" data-name="Path 27" d="M38.05,42.255a13.045,13.045,0,0,0-10.82,5.753.937.937,0,1,0,1.554,1.05,11.125,11.125,0,1,1-1.609,3.667.937.937,0,1,0-1.825-.431,13.051,13.051,0,1,0,12.7-10.039Z" transform="translate(-21.875 -21.875)" fill="#de3c4b"/>
      <path id="Path_28" data-name="Path 28" d="M107.007,127.462a3.2,3.2,0,1,0-3.2-3.2A3.2,3.2,0,0,0,107.007,127.462Zm0-4.524a1.324,1.324,0,1,1-1.324,1.324A1.326,1.326,0,0,1,107.007,122.938Z" transform="translate(-90.833 -90.833)" fill="#de3c4b"/>
      <path id="Path_29" data-name="Path 29" d="M111.627,73.922a2.539,2.539,0,1,0-2.539-2.539A2.542,2.542,0,0,0,111.627,73.922Zm0-3.2a.664.664,0,1,1-.664.664A.665.665,0,0,1,111.627,70.718Z" transform="translate(-95.453 -45.14)" fill="#de3c4b"/>
      <path id="Path_30" data-name="Path 30" d="M161.423,102.672a2.539,2.539,0,1,0-2.539-2.539A2.542,2.542,0,0,0,161.423,102.672Zm0-3.2a.664.664,0,1,1-.664.664A.665.665,0,0,1,161.423,99.468Z" transform="translate(-139.025 -70.296)" fill="#de3c4b"/>
      <path id="Path_31" data-name="Path 31" d="M61.83,102.672a2.539,2.539,0,1,0-2.539-2.539A2.542,2.542,0,0,0,61.83,102.672Zm0-3.2a.664.664,0,1,1-.664.664A.665.665,0,0,1,61.83,99.468Z" transform="translate(-51.88 -70.296)" fill="#de3c4b"/>
      <path id="Path_32" data-name="Path 32" d="M161.423,160.172a2.539,2.539,0,1,0-2.539-2.539A2.542,2.542,0,0,0,161.423,160.172Zm0-3.2a.664.664,0,1,1-.664.664A.665.665,0,0,1,161.423,156.968Z" transform="translate(-139.025 -120.61)" fill="#de3c4b"/>
      <path id="Path_33" data-name="Path 33" d="M61.83,160.172a2.539,2.539,0,1,0-2.539-2.539A2.542,2.542,0,0,0,61.83,160.172Zm0-3.2a.664.664,0,1,1-.664.664A.665.665,0,0,1,61.83,156.968Z" transform="translate(-51.88 -120.61)" fill="#de3c4b"/>
      <path id="Path_34" data-name="Path 34" d="M111.627,183.843a2.539,2.539,0,1,0,2.539,2.539A2.542,2.542,0,0,0,111.627,183.843Zm0,3.2a.664.664,0,1,1,.664-.664A.665.665,0,0,1,111.627,187.047Z" transform="translate(-95.453 -145.766)" fill="#de3c4b"/>
      <path id="Path_35" data-name="Path 35" d="M279.937,370.63a2.808,2.808,0,1,0,2.808-2.808A2.811,2.811,0,0,0,279.937,370.63Zm3.741,0a.933.933,0,1,1-.933-.933A.934.934,0,0,1,283.678,370.63Z" transform="translate(-244.947 -306.749)" fill="#de3c4b"/>
      <circle id="Ellipse_6" data-name="Ellipse 6" cx="0.937" cy="0.937" r="0.937" transform="translate(30.868 44.644)" fill="#de3c4b"/>
      <circle id="Ellipse_7" data-name="Ellipse 7" cx="0.937" cy="0.937" r="0.937" transform="translate(39.474 44.644)" fill="#de3c4b"/>
      <circle id="Ellipse_8" data-name="Ellipse 8" cx="0.937" cy="0.937" r="0.937" transform="translate(48.081 44.644)" fill="#de3c4b"/>
      <circle id="Ellipse_9" data-name="Ellipse 9" cx="0.937" cy="0.937" r="0.937" transform="translate(56.687 44.644)" fill="#de3c4b"/>
      <path id="Path_36" data-name="Path 36" d="M62.9,37.687H59.738l2.52-9.4A1.1,1.1,0,0,0,61.2,26.907H58.293a1.1,1.1,0,0,0-1.059.813l-1.767,6.589a2.884,2.884,0,0,0-2.14-.949H41.99a2.883,2.883,0,0,0-2.14.949l-1.767-6.589a1.1,1.1,0,0,0-1.059-.812H34.118a1.1,1.1,0,0,0-1.059,1.381l2.52,9.4h-3.8a16.175,16.175,0,1,0-18.8,11.6v9.237a.937.937,0,1,0,1.875,0V49.55a16.163,16.163,0,0,0,14.523-6.781H40.037a.937.937,0,1,0,0-1.875H30.521q.339-.649.62-1.332h30.98v1.332H44.412a.937.937,0,0,0,0,1.875H60.746V65.1h-2a1.217,1.217,0,0,0-1.216,1.216v5.437H47.767V66.312A1.217,1.217,0,0,0,46.552,65.1H43.9a1.217,1.217,0,0,0-1.216,1.216v5.437H32.914V66.312A1.217,1.217,0,0,0,31.7,65.1H29.043a1.217,1.217,0,0,0-1.215,1.216v5.437H18.061V66.312A1.217,1.217,0,0,0,16.846,65.1h-2V62.9a.937.937,0,1,0-1.875,0v8.852H12.7a1.1,1.1,0,0,0-1.1,1.1v2.985a1.1,1.1,0,0,0,1.1,1.1H62.894a1.1,1.1,0,0,0,1.1-1.1V72.85a1.1,1.1,0,0,0-1.1-1.1h-.274V42.769H62.9a1.1,1.1,0,0,0,1.1-1.1V38.784a1.1,1.1,0,0,0-1.1-1.1ZM16.174,47.729a14.3,14.3,0,1,1,14.3-14.3A14.316,14.316,0,0,1,16.174,47.729ZM58.89,28.782h1.294L57.8,37.687H56.5Zm-16.9,6.452H53.328a1.016,1.016,0,0,1,1.015,1.015v1.439H40.974V36.249A1.016,1.016,0,0,1,41.99,35.233Zm-5.562-6.452,2.388,8.906H37.521l-2.388-8.906Zm8.129,38.19h1.336v4.777H44.556Zm-14.853,0h1.336v4.777H29.7Zm-14.853,0h1.336v4.777H14.85Zm47.271,8.09H13.475V73.624H62.121Zm-2.711-3.313V66.972h1.336v4.777Z" fill="#de3c4b"/>
    </g>
  </g>
</svg>
