<svg xmlns="http://www.w3.org/2000/svg" width="77.861" height="92.541" viewBox="0 0 77.861 92.541">
  <g id="Group_129" data-name="Group 129" transform="translate(582 -3922)">
    <g id="evaluation" transform="translate(-582 3922)">
      <g id="Group_128" data-name="Group 128" transform="translate(0 0)">
        <g id="Group_127" data-name="Group 127">
          <path id="Path_231" data-name="Path 231" d="M184.133,143.921a1.113,1.113,0,1,0,0-2.225H163.02a1.113,1.113,0,0,0,0,2.225Z" transform="translate(-137.759 -115.961)" fill="#fff"/>
          <path id="Path_232" data-name="Path 232" d="M86.41,186.31a1.113,1.113,0,0,0,1.113,1.113h25.946a1.113,1.113,0,1,0,0-2.225H87.523A1.113,1.113,0,0,0,86.41,186.31Z" transform="translate(-79.613 -151.561)" fill="#fff"/>
          <path id="Path_233" data-name="Path 233" d="M87.523,230.923h21.767a1.113,1.113,0,0,0,0-2.225H87.523a1.113,1.113,0,0,0,0,2.225Z" transform="translate(-79.613 -187.161)" fill="#fff"/>
          <path id="Path_234" data-name="Path 234" d="M87.523,274.424H107.49a1.113,1.113,0,1,0,0-2.225H87.523a1.113,1.113,0,0,0,0,2.225Z" transform="translate(-79.613 -222.762)" fill="#fff"/>
          <path id="Path_235" data-name="Path 235" d="M87.523,317.925H107.49a1.113,1.113,0,1,0,0-2.225H87.523a1.113,1.113,0,1,0,0,2.225Z" transform="translate(-79.613 -258.362)" fill="#fff"/>
          <path id="Path_236" data-name="Path 236" d="M87.523,361.426h21.767a1.113,1.113,0,0,0,0-2.225H87.523a1.113,1.113,0,0,0,0,2.225Z" transform="translate(-79.613 -293.962)" fill="#fff"/>
          <path id="Path_237" data-name="Path 237" d="M87.523,404.927h32.323a1.113,1.113,0,1,0,0-2.225H87.523a1.113,1.113,0,0,0,0,2.225Z" transform="translate(-79.613 -329.563)" fill="#fff"/>
          <path id="Path_238" data-name="Path 238" d="M87.523,448.428h32.323a1.113,1.113,0,1,0,0-2.225H87.523a1.113,1.113,0,0,0,0,2.225Z" transform="translate(-79.613 -363.47)" fill="#fff"/>
          <path id="Path_239" data-name="Path 239" d="M99.481,33.223c-.092,0-.184,0-.276.005V16.018a4.093,4.093,0,0,0-4.088-4.088H84.685V9.865a2.445,2.445,0,0,0-2.438-2.447H76.666V6.8a6.748,6.748,0,1,0-13.5,0v.619H57.589a2.445,2.445,0,0,0-2.437,2.447V11.93H44.72a4.093,4.093,0,0,0-4.088,4.088v6.411a1.354,1.354,0,0,0,2.707,0V16.018a1.382,1.382,0,0,1,1.381-1.381H55.152V16.7a2.445,2.445,0,0,0,2.437,2.447H82.248A2.445,2.445,0,0,0,84.685,16.7V14.637H95.116A1.382,1.382,0,0,1,96.5,16.018V33.455a18.832,18.832,0,0,0-8.283,3.464A1.353,1.353,0,1,0,89.82,39.1a16.295,16.295,0,1,1-3.976,4.194,1.354,1.354,0,1,0-2.262-1.487A19.015,19.015,0,0,0,96.5,71.012V88.453a1.382,1.382,0,0,1-1.381,1.381H44.72a1.382,1.382,0,0,1-1.381-1.381V28.709a1.354,1.354,0,1,0-2.707,0V88.453a4.093,4.093,0,0,0,4.088,4.088h50.4A4.093,4.093,0,0,0,99.2,88.453V71.244c.092,0,.184,0,.276,0a19.012,19.012,0,1,0,0-38.024Zm-17.5-16.781H57.858V10.124h6.665a1.354,1.354,0,0,0,1.354-1.354V6.8a4.041,4.041,0,1,1,8.082,0V8.771a1.354,1.354,0,0,0,1.354,1.354h6.665v6.318Z" transform="translate(-40.632 0)" fill="#fff"/>
          <path id="Path_240" data-name="Path 240" d="M310.267,252.22h.1a3.5,3.5,0,0,0,2.454-1.116l7.984-8.648a3.475,3.475,0,1,0-5.107-4.715l-5.573,6.036-1.378-1.332a3.475,3.475,0,0,0-4.83,5l3.935,3.8A3.457,3.457,0,0,0,310.267,252.22Zm-4.834-8.147a1.252,1.252,0,0,1,1.768-.03l2.2,2.123a1.113,1.113,0,0,0,1.591-.045l6.345-6.872a1.232,1.232,0,0,1,1.767-.071,1.257,1.257,0,0,1,.07,1.767l-7.985,8.648a1.255,1.255,0,0,1-.88.4h-.039a1.244,1.244,0,0,1-.869-.351l-3.935-3.8A1.252,1.252,0,0,1,305.433,244.073Z" transform="translate(-250.058 -191.912)" fill="#fff"/>
        </g>
      </g>
    </g>
  </g>
</svg>
