<svg xmlns="http://www.w3.org/2000/svg" width="16.832" height="16.295" viewBox="0 0 16.832 16.295">
  <g id="house-black-silhouette-without-door_2_" data-name="house-black-silhouette-without-door (2)" transform="translate(0 -4.89)">
    <path id="Path_1" data-name="Path 1" d="M16.62,12.841a.8.8,0,0,0-.066-1.148L9.032,5.11a.938.938,0,0,0-1.223.014L.262,12.043A.8.8,0,0,0,.225,13.19l.189.2a.825.825,0,0,0,1.133.087l.564-.505v7.4a.821.821,0,0,0,.821.821H5.875a.821.821,0,0,0,.821-.821V15.19h3.753v5.174a.776.776,0,0,0,.771.821h3.118a.821.821,0,0,0,.821-.821V13.073l.348.305c.192.169.595.033.9-.3Z" transform="translate(0 0)"/>
  </g>
</svg>
