<svg xmlns="http://www.w3.org/2000/svg" width="28.128" height="36" viewBox="0 0 28.128 36">
  <path id="Icon_awesome-exchange-alt" data-name="Icon awesome-exchange-alt" d="M0,11.813V10.688A1.687,1.687,0,0,1,1.688,9H27V5.625a1.689,1.689,0,0,1,2.881-1.193l5.625,5.625a1.688,1.688,0,0,1,0,2.386l-5.625,5.625A1.689,1.689,0,0,1,27,16.875V13.5H1.688A1.687,1.687,0,0,1,0,11.813ZM34.313,22.5H9V19.125a1.689,1.689,0,0,0-2.881-1.193L.494,23.557a1.688,1.688,0,0,0,0,2.386l5.625,5.625A1.689,1.689,0,0,0,9,30.375V27H34.313A1.687,1.687,0,0,0,36,25.313V24.188A1.687,1.687,0,0,0,34.313,22.5Z" transform="translate(-3.936 36) rotate(-90)" fill="#fff"/>
</svg>
