<svg xmlns="http://www.w3.org/2000/svg" width="214.169" height="99.111" viewBox="0 0 214.169 99.111">
  <g id="Group_136" data-name="Group 136" transform="translate(2280.721 1648.931)">
    <path id="Union_3" data-name="Union 3" d="M48.037,99.069C26.789,97.9,10.258,87.769,0,79.878V.069L214.169.8V79.878c-33.007-12-57.725-11.536-74.1-8.957-39,6.144-55.974,28.261-88.072,28.259Q50.055,99.18,48.037,99.069Z" transform="translate(-2280.721 -1649)" fill="#de3c4b"/>
    <g id="Group_135" data-name="Group 135">
      <text id="Food_Stuff" data-name="Food  Stuff" transform="translate(-2200.877 -1594.091)" fill="#fff" font-size="6" font-family="AvenirNext-DemiBold, Avenir Next" font-weight="300" letter-spacing="0.45em"><tspan x="0" y="0" xml:space="preserve">FOOD  STUFF</tspan></text>
      <path id="Path_21" data-name="Path 21" d="M945,1575.687a38.944,38.944,0,0,1,2.44,3.47c1.533,2.75,1.715,2.892,4.6,2.187a1.842,1.842,0,0,1,.1.669c-.369,1.3.973,3.106-.948,3.914-2.371,1-5.307.286-6.466-1.644a40.9,40.9,0,0,1-1.919-4.171c-.689-1.5-1.648-2.569-3.614-2.225,0,1.18.05,2.366-.011,3.546-.133,2.624-1.173,4.075-3.245,4.644-3.664,1.005-5.418-.671-4.856-4.744.321.145.617.292.922.416,1.617.655,2.4.146,2.414-1.669.031-4.062.011-8.124.011-12.186v-2.017h4.745v7.691c2.452.026,4.494-.475,5.969-2.394a4.986,4.986,0,0,0-1.7-7.319,9.119,9.119,0,0,0-9.294-.268c-3.621,1.889-4.587,5.682-2.455,9.607l-3.249,2.953c-3.3-2.29-2.964-9.138-1.225-12.251a11.031,11.031,0,0,1,7.373-5.564,14.707,14.707,0,0,1,11.661,1.635,8.741,8.741,0,0,1,4.458,8.439c-.289,3.7-2.487,6.007-5.7,7.281" transform="translate(-3149.109 -3189.676)" fill="#fff"/>
      <path id="Path_22" data-name="Path 22" d="M2254.369,1740.49c.035-.151-.07-.333-.113-.495-2.533.673-2.905.37-2.905-2.363v-8.47c-1.65.539-3.425-.856-4.718,1.175-3.348-2.179-7.089-1.633-9.243,1.36a9.07,9.07,0,0,0,.884,11.138c2.494,2.452,6.127,2.237,9.2-.562.175.237.33.48.519.7a4.436,4.436,0,0,0,5.448,1.133c1.712-.783.688-2.385.933-3.612m-10.719.119c-1.769-.022-3.488-2.009-3.432-3.974.049-1.876,1.8-3.811,3.446-3.818,1.937-.007,3.278,1.6,3.278,3.914,0,2.343-1.319,3.9-3.292,3.878" transform="translate(-4378.9 -3347.936)" fill="#fff"/>
      <path id="Path_24" data-name="Path 24" d="M1529.259,1746.374c-.845-.969-1.538-1.757-2.221-2.553a4.921,4.921,0,0,1-.333-.474l6.418-7.289c-1.759,0-3.443-.1-5.112.026-1.979.151-1.453-1.285-1.511-2.376-.056-1.107-.178-2.11,1.48-2.04,3.115.13,6.244.125,9.359,0,1.34-.055,1.6.791,1.944,1.738.357.982.882,1.857-.227,2.846-1.674,1.493-3.182,3.195-5.006,5.063,2.877.534,4.712,1.965,5.464,4.59a8.081,8.081,0,0,1-.926,6.685c-1,1.625-2.413,3.173-4.188,2.837-.907-.17-1.5-2.2-2.309-3.5,1.943-.637,3.36-1.458,3.541-3.508a3.265,3.265,0,0,0-1.732-3.236c-1.72-1.034-3.152-.215-4.644,1.192" transform="translate(-3704.271 -3350.388)" fill="#fff"/>
      <path id="Path_25" data-name="Path 25" d="M2024.717,1740.313a2.844,2.844,0,0,1,.1.657c-.172,1.331.725,3.074-1.456,3.6-2.459.589-4.416.07-5.254-1.986a14.851,14.851,0,0,1-.68-4.156c-.107-1.124.1-2.295-.1-3.391-.118-.65-.68-1.573-1.184-1.688a2.342,2.342,0,0,0-2.025.747,5.05,5.05,0,0,0-.768,2.639c-.1,2.385-.044,4.777-.054,7.166a2.717,2.717,0,0,1-.106.465H2009v-14.8c1.55.2,3.115-.583,4.544.638a14.611,14.611,0,0,1,2.855-.846c2.778-.27,4.841,1.444,5.264,4.383a32.486,32.486,0,0,1,.151,4.287c.027,2.6.378,2.9,2.9,2.3" transform="translate(-4169.16 -3348.221)" fill="#fff"/>
      <path id="Path_26" data-name="Path 26" d="M1298.036,1728.34a7.481,7.481,0,0,0-7.476,7.74c0,4.35,3.158,7.806,7.2,7.866a7.479,7.479,0,0,0,7.546-7.667c.028-4.468-3.158-7.947-7.271-7.939m-.057,11.636a3.884,3.884,0,0,1-3.559-3.449,3.8,3.8,0,0,1,2.815-4.025c.477,3.249.891,3.649,4.2,4.033a3.7,3.7,0,0,1-3.46,3.442" transform="translate(-3486.184 -3347.314)" fill="#fff"/>
      <line id="Line_1" data-name="Line 1" x2="25" transform="translate(-2200.5 -1600.5)" fill="none" stroke="#fff" stroke-width="1"/>
      <line id="Line_3" data-name="Line 3" x2="67" transform="translate(-2200.5 -1591.5)" fill="none" stroke="#fff" stroke-width="1"/>
      <line id="Line_2" data-name="Line 2" x2="27" transform="translate(-2160.5 -1600.5)" fill="none" stroke="#fff" stroke-width="1"/>
    </g>
  </g>
</svg>
