<svg xmlns="http://www.w3.org/2000/svg" width="16" height="16.002" viewBox="0 0 16 16.002">
  <g id="meteorite" transform="translate(-0.036 0)">
    <path id="Path_15" data-name="Path 15" d="M89.327,272.8a2.344,2.344,0,1,0,3.315,0A2.347,2.347,0,0,0,89.327,272.8Zm.995,2.32a.469.469,0,1,1,0-.663A.469.469,0,0,1,90.322,275.121Zm.995-1.657a.469.469,0,1,1,0-.663A.469.469,0,0,1,91.316,273.463Zm.994,1.657a.469.469,0,1,1,0-.663A.469.469,0,0,1,92.311,275.121Z" transform="translate(-85.836 -263.61)"/>
    <path id="Path_16" data-name="Path 16" d="M13.636.411,7.8,6.207a.469.469,0,0,1-.663-.663L10.321,2.4A1.406,1.406,0,0,0,8.332.411L1.5,7.2a5.28,5.28,0,0,0,0,7.293,5.163,5.163,0,0,0,7.293,0l6.167-6.127a1.406,1.406,0,0,0-1.989-1.989l-2.52,2.48A.469.469,0,0,1,9.79,8.2l5.835-5.8A1.406,1.406,0,0,0,13.636.411ZM7.469,13.168a3.282,3.282,0,1,1,0-4.641A3.286,3.286,0,0,1,7.469,13.168Z" transform="translate(0)"/>
  </g>
</svg>
