<svg xmlns="http://www.w3.org/2000/svg" width="59.719" height="59.806" viewBox="0 0 59.719 59.806">
  <g id="phone-call_2_" data-name="phone-call (2)" transform="translate(-0.344)">
    <g id="Group_123" data-name="Group 123" transform="translate(0.344 0)">
      <path id="Path_201" data-name="Path 201" d="M47.567,60.995A5.882,5.882,0,0,0,43.3,59.038a6.083,6.083,0,0,0-4.317,1.944l-3.989,3.976c-.328-.177-.656-.341-.972-.5-.454-.227-.884-.442-1.25-.669a43.352,43.352,0,0,1-10.388-9.467,25.576,25.576,0,0,1-3.408-5.377c1.035-.947,1.994-1.931,2.928-2.878.353-.353.707-.719,1.06-1.073a5.791,5.791,0,0,0,0-8.735L19.52,32.808c-.391-.391-.8-.8-1.174-1.2-.757-.783-1.553-1.59-2.373-2.348a5.975,5.975,0,0,0-4.229-1.856,6.183,6.183,0,0,0-4.292,1.856l-.025.025-4.292,4.33A9.235,9.235,0,0,0,.4,39.486a22.128,22.128,0,0,0,1.616,9.366,54.349,54.349,0,0,0,9.656,16.106,59.4,59.4,0,0,0,19.78,15.488,30.818,30.818,0,0,0,11.108,3.282c.265.013.543.025.8.025a9.511,9.511,0,0,0,7.283-3.13c.013-.025.038-.038.05-.063a28.7,28.7,0,0,1,2.209-2.285c.543-.518,1.1-1.06,1.641-1.628a6.3,6.3,0,0,0,1.906-4.367A6.066,6.066,0,0,0,54.5,67.95Zm4.519,13.292c-.013,0-.013.013,0,0-.492.53-1,1.01-1.54,1.54a33.192,33.192,0,0,0-2.436,2.525,6.085,6.085,0,0,1-4.746,2.007c-.189,0-.391,0-.581-.013a27.377,27.377,0,0,1-9.846-2.954A56.07,56.07,0,0,1,14.306,62.8,51.245,51.245,0,0,1,5.218,47.665a18.023,18.023,0,0,1-1.414-7.9,5.794,5.794,0,0,1,1.742-3.749l4.3-4.3a2.869,2.869,0,0,1,1.919-.9,2.7,2.7,0,0,1,1.843.884l.038.038c.77.719,1.5,1.464,2.272,2.259.391.4.8.808,1.2,1.224l3.446,3.446c1.338,1.338,1.338,2.575,0,3.913-.366.366-.719.732-1.086,1.086-1.06,1.086-2.07,2.1-3.168,3.08-.025.025-.05.038-.063.063a2.575,2.575,0,0,0-.656,2.865l.038.114a27.666,27.666,0,0,0,4.077,6.652l.013.013a46.329,46.329,0,0,0,11.209,10.2,17.234,17.234,0,0,0,1.553.846c.454.227.884.442,1.25.669.05.025.1.063.151.088a2.736,2.736,0,0,0,1.25.316,2.7,2.7,0,0,0,1.919-.871l4.317-4.317a2.856,2.856,0,0,1,1.906-.947,2.571,2.571,0,0,1,1.818.921l.025.025,6.955,6.955A2.5,2.5,0,0,1,52.086,74.286Z" transform="translate(-0.344 -23.947)" fill="#de3c4b"/>
      <path id="Path_202" data-name="Path 202" d="M246.346,89.306a16.245,16.245,0,0,1,13.228,13.228,1.694,1.694,0,0,0,1.679,1.414,2.254,2.254,0,0,0,.29-.025,1.706,1.706,0,0,0,1.4-1.969A19.643,19.643,0,0,0,246.94,85.948a1.713,1.713,0,0,0-1.969,1.388A1.686,1.686,0,0,0,246.346,89.306Z" transform="translate(-214.069 -75.079)" fill="#de3c4b"/>
      <path id="Path_203" data-name="Path 203" d="M277.11,26.382A32.345,32.345,0,0,0,250.755.026a1.7,1.7,0,1,0-.555,3.358,28.89,28.89,0,0,1,23.554,23.554,1.694,1.694,0,0,0,1.679,1.414,2.254,2.254,0,0,0,.29-.025A1.672,1.672,0,0,0,277.11,26.382Z" transform="translate(-217.417 0)" fill="#de3c4b"/>
    </g>
  </g>
</svg>
