<svg xmlns="http://www.w3.org/2000/svg" width="202.735" height="85.376" viewBox="0 0 202.735 85.376">
  <g id="Group_134" data-name="Group 134" transform="translate(510.328 -5321.829)">
    <path id="Path_21" data-name="Path 21" d="M965.093,1594.512a79.9,79.9,0,0,1,5.01,7.125c3.148,5.646,3.521,5.938,9.453,4.49a3.785,3.785,0,0,1,.2,1.373c-.757,2.661,2,6.379-1.948,8.036-4.869,2.043-10.9.587-13.277-3.375a83.979,83.979,0,0,1-3.94-8.565c-1.415-3.09-3.384-5.276-7.422-4.57,0,2.423.1,4.859-.022,7.281-.273,5.389-2.41,8.368-6.664,9.536-7.524,2.064-11.125-1.378-9.972-9.742.66.3,1.268.6,1.893.855,3.321,1.344,4.93.3,4.957-3.428.063-8.341.022-16.682.022-25.023v-4.141h9.743v15.794c5.035.053,9.228-.975,12.258-4.916,3.654-4.769,2.1-11.741-3.491-15.029a18.726,18.726,0,0,0-19.085-.55c-7.435,3.879-9.42,11.667-5.042,19.728l-6.672,6.064c-6.771-4.7-6.086-18.764-2.515-25.158a22.653,22.653,0,0,1,15.141-11.425c8.334-1.988,16.458-1.336,23.945,3.358,6.178,3.879,9.753,9.662,9.155,17.33-.594,7.592-5.108,12.336-11.712,14.951" transform="translate(-1436.261 3764.012)" fill="#fff"/>
    <path id="Path_22" data-name="Path 22" d="M2273.84,1752.581c.072-.311-.145-.683-.231-1.016-5.2,1.381-5.966.759-5.966-4.852v-17.392c-3.387,1.108-7.034-1.758-9.687,2.413-6.875-4.475-14.556-3.353-18.981,2.793-4.758,6.613-3.921,17.244,1.815,22.872,5.121,5.035,12.582,4.594,18.882-1.153.36.486.677.986,1.066,1.44a9.109,9.109,0,0,0,11.187,2.327c3.516-1.607,1.412-4.9,1.916-7.417m-22.01.243c-3.633-.046-7.162-4.125-7.047-8.16.1-3.853,3.689-7.825,7.077-7.841,3.978-.015,6.731,3.276,6.731,8.038,0,4.81-2.708,8.008-6.76,7.963" transform="translate(-2581.606 3619.38)" fill="#fff"/>
    <path id="Path_24" data-name="Path 24" d="M1532.194,1761.87c-1.735-1.989-3.157-3.608-4.562-5.243a10.089,10.089,0,0,1-.683-.973l13.18-14.968c-3.612,0-7.071-.207-10.5.054-4.064.31-2.983-2.638-3.1-4.879-.115-2.273-.366-4.332,3.04-4.189,6.4.266,12.821.256,19.218,0,2.752-.114,3.284,1.625,3.993,3.569.734,2.017,1.812,3.814-.466,5.843-3.438,3.066-6.534,6.56-10.28,10.4,5.909,1.1,9.676,4.034,11.22,9.425a16.6,16.6,0,0,1-1.9,13.728c-2.054,3.338-4.955,6.517-8.6,5.826-1.862-.349-3.085-4.51-4.742-7.184,3.989-1.308,6.9-2.995,7.271-7.2a6.7,6.7,0,0,0-3.558-6.644c-3.533-2.123-6.472-.442-9.536,2.448" transform="translate(-1943.619 3617.139)" fill="#fff"/>
    <path id="Path_25" data-name="Path 25" d="M2041.274,1751.892a5.835,5.835,0,0,1,.216,1.349c-.353,2.734,1.489,6.312-2.99,7.384-5.049,1.209-9.068.143-10.789-4.077-1.055-2.585-1.126-5.66-1.4-8.534-.219-2.308.208-4.712-.2-6.963-.243-1.335-1.4-3.229-2.431-3.467a4.809,4.809,0,0,0-4.159,1.533,10.37,10.37,0,0,0-1.577,5.418c-.215,4.9-.09,9.809-.11,14.714a5.547,5.547,0,0,1-.217.956H2009v-30.4c3.182.41,6.4-1.2,9.331,1.309,1.767-.544,3.782-1.533,5.862-1.736,5.7-.555,9.942,2.965,10.81,9a66.681,66.681,0,0,1,.31,8.8c.055,5.33.776,5.957,5.963,4.715" transform="translate(-2389.927 3619.12)" fill="#fff"/>
    <path id="Path_26" data-name="Path 26" d="M1305.912,1728.34c-8.707.014-15.336,6.885-15.352,15.894,0,8.933,6.486,16.03,14.789,16.152,8.649.121,15.422-6.765,15.495-15.743.058-9.174-6.486-16.318-14.931-16.3m-.116,23.895c-3.474.03-6.961-3.336-7.308-7.083a7.807,7.807,0,0,1,5.781-8.266c.979,6.672,1.83,7.493,8.632,8.281-.605,4.14-3.5,7.023-7.1,7.068" transform="translate(-1744.311 3619.948)" fill="#fff"/>
    <text id="Food_Stuff" data-name="Food    Stuff" transform="translate(-466.539 5400.063)" fill="#fff" font-size="11" font-family="AvenirNext-DemiBold, Avenir Next" font-weight="300" letter-spacing="0.45em"><tspan x="0" y="0" xml:space="preserve">FOOD    STUFF</tspan></text>
    <line id="Line_1" data-name="Line 1" x2="51.337" transform="translate(-465.765 5388.224)" fill="none" stroke="#fff" stroke-width="1"/>
    <line id="Line_3" data-name="Line 3" x2="137.583" transform="translate(-465.765 5406.705)" fill="none" stroke="#fff" stroke-width="1"/>
    <line id="Line_2" data-name="Line 2" x2="55.444" transform="translate(-383.625 5388.224)" fill="none" stroke="#fff" stroke-width="1"/>
  </g>
</svg>
