<svg xmlns="http://www.w3.org/2000/svg" width="17" height="17" viewBox="0 0 17 17">
  <g id="search-problem" transform="translate(-0.001 0)">
    <g id="Group_14" data-name="Group 14" transform="translate(0.001 0)">
      <path id="Path_6" data-name="Path 6" d="M14.983,11.772A6.9,6.9,0,1,0,5.228,2.017a6.764,6.764,0,0,0-1.038,8.325.29.29,0,0,1-.04.346L.631,14.207a1.607,1.607,0,0,0-.246,2.3l.107.107a1.607,1.607,0,0,0,2.3-.246l3.512-3.512a.3.3,0,0,1,.353-.047A6.764,6.764,0,0,0,14.983,11.772ZM6.5,10.5a5.1,5.1,0,1,1,7.208,0A5.1,5.1,0,0,1,6.5,10.5Z" transform="translate(-0.001 0)"/>
      <g id="Group_13" data-name="Group 13" transform="translate(8.798 3.266)">
        <path id="Path_7" data-name="Path 7" d="M161.629,64.644a.549.549,0,0,1-.548-.548l-.438-3.915a.549.549,0,0,1,.548-.548h1.565a.549.549,0,0,1,.548.548l-.438,3.915a.549.549,0,0,1-.548.548Z" transform="translate(-160.643 -59.633)"/>
        <path id="Path_8" data-name="Path 8" d="M172.414,165.011a.439.439,0,0,1-.438.438h-.663a.44.44,0,0,1-.438-.438v-.663a.439.439,0,0,1,.438-.438h.663a.439.439,0,0,1,.438.438Z" transform="translate(-170.314 -158.199)"/>
      </g>
    </g>
  </g>
</svg>
