<svg xmlns="http://www.w3.org/2000/svg" width="17.223" height="17.225" viewBox="0 0 17.223 17.225">
  <g id="settings" transform="translate(0 -6.926)">
    <g id="Group_26" data-name="Group 26" transform="translate(0 6.926)">
      <g id="Group_25" data-name="Group 25">
        <path id="Path_14" data-name="Path 14" d="M15.871,25.112a7.224,7.224,0,0,0-.046-1.747l1.323-.59a8.713,8.713,0,0,0-1.6-3.587l-1.324.589a7.248,7.248,0,0,0-1.267-1.2l.519-1.352a8.752,8.752,0,0,0-3.665-1.408l-.519,1.353a7.224,7.224,0,0,0-1.747.046L6.962,15.9A8.745,8.745,0,0,0,3.379,17.5l.582,1.308a7.236,7.236,0,0,0-1.2,1.267L1.41,19.563a8.6,8.6,0,0,0-.917,1.751A8.849,8.849,0,0,0,0,23.226l1.352.519A7.224,7.224,0,0,0,1.4,25.491l-1.323.589a8.706,8.706,0,0,0,1.6,3.587L3,29.078a7.222,7.222,0,0,0,1.268,1.2l-.519,1.353a8.752,8.752,0,0,0,3.665,1.408l.519-1.353a7.247,7.247,0,0,0,1.747-.046l.586,1.316a8.744,8.744,0,0,0,3.583-1.606l-.583-1.308a7.237,7.237,0,0,0,1.2-1.267l1.347.517a8.6,8.6,0,0,0,.917-1.751,8.754,8.754,0,0,0,.494-1.913Zm-3.593.723a3.927,3.927,0,1,1-2.26-5.072A3.927,3.927,0,0,1,12.278,25.835Z" transform="translate(0 -15.816)"/>
      </g>
    </g>
  </g>
</svg>
