<svg xmlns="http://www.w3.org/2000/svg" width="90.068" height="88.567" viewBox="0 0 90.068 88.567">
  <g id="storage" transform="translate(0 -4)">
    <g id="Group_118" data-name="Group 118" transform="translate(0 4)">
      <path id="Path_161" data-name="Path 161" d="M90.068,35.524v-3h-6V11.506a1.5,1.5,0,0,0-1.5-1.5H49.537a1.5,1.5,0,0,0-1.5,1.5h0V32.522h-4.5V11.506a1.5,1.5,0,0,0-1.5-1.5H9.007a1.5,1.5,0,0,0-1.5,1.5h0V32.522H3V4H0V91.066a1.5,1.5,0,0,0,1.5,1.5H90.068v-3h-6V68.549a1.5,1.5,0,0,0-1.5-1.5H49.537a1.5,1.5,0,0,0-1.5,1.5h0V89.565h-4.5V68.549a1.5,1.5,0,0,0-1.5-1.5H9.007a1.5,1.5,0,0,0-1.5,1.5h0V89.565H3V64.045H90.068v-3h-6V40.027a1.5,1.5,0,0,0-1.5-1.5H49.537a1.5,1.5,0,0,0-1.5,1.5h0V61.043h-4.5V40.027a1.5,1.5,0,0,0-1.5-1.5H9.007a1.5,1.5,0,0,0-1.5,1.5h0V61.043H3V35.524ZM63.048,13.007h6v6h-6Zm-12.009,0h9.007v7.506a1.5,1.5,0,0,0,1.5,1.5h9.008a1.5,1.5,0,0,0,1.5-1.5h0V13.007h9.007V32.522H51.039Zm-28.522,0h6v6h-6Zm-12.009,0h9.007v7.506a1.5,1.5,0,0,0,1.5,1.5h9.008a1.5,1.5,0,0,0,1.5-1.5h0V13.007h9.007V32.522H10.508ZM63.048,70.05h6v6h-6Zm-12.009,0h9.007v7.506a1.5,1.5,0,0,0,1.5,1.5h9.008a1.5,1.5,0,0,0,1.5-1.5h0V70.05h9.007V89.565H51.039Zm-28.522,0h6v6h-6Zm-12.009,0h9.007v7.506a1.5,1.5,0,0,0,1.5,1.5h9.008a1.5,1.5,0,0,0,1.5-1.5h0V70.05h9.007V89.565H10.508Zm52.54-27.02h6v6h-6Zm-12.009-1.5h9.007v9.007a1.5,1.5,0,0,0,1.5,1.5h9.008a1.5,1.5,0,0,0,1.5-1.5h0V41.528h9.007V61.043H51.039Zm-28.522,0h6v6h-6Zm-12.009,0h9.007v7.506a1.5,1.5,0,0,0,1.5,1.5h9.008a1.5,1.5,0,0,0,1.5-1.5h0V41.528h9.007V61.043H10.508Z" transform="translate(0 -4)" fill="#fff"/>
    </g>
  </g>
</svg>
