<svg xmlns="http://www.w3.org/2000/svg" width="16" height="16" viewBox="0 0 16 16">
  <g id="teamwork" transform="translate(0.001 -0.005)">
    <g id="Group_2" data-name="Group 2" transform="translate(5.894 0.005)">
      <g id="Group_1" data-name="Group 1" transform="translate(0 0)">
        <circle id="Ellipse_1" data-name="Ellipse 1" cx="2" cy="2" r="2" transform="translate(0.105 0)"/>
      </g>
    </g>
    <g id="Group_4" data-name="Group 4" transform="translate(4.999 5.005)">
      <g id="Group_3" data-name="Group 3">
        <path id="Path_2" data-name="Path 2" d="M166,164.441l-.454-3.536a1,1,0,0,0-.994-.9H164a.5.5,0,0,0-.354.146L163,160.8l-.646-.646A.5.5,0,0,0,162,160h-.547a.994.994,0,0,0-.994.887l-.455,3.55a.5.5,0,0,0,.5.563h.54l.418,5.1a1,1,0,0,0,.995.9h1.095a1,1,0,0,0,1-.909l.417-5.091h.539a.5.5,0,0,0,.375-.17A.492.492,0,0,0,166,164.441Z" transform="translate(-160 -160.005)"/>
      </g>
    </g>
    <g id="Group_6" data-name="Group 6" transform="translate(10.947 0.005)">
      <g id="Group_5" data-name="Group 5" transform="translate(0 0)">
        <circle id="Ellipse_2" data-name="Ellipse 2" cx="2" cy="2" r="2" transform="translate(0.053 0)"/>
      </g>
    </g>
    <g id="Group_8" data-name="Group 8" transform="translate(0.999 0.005)">
      <g id="Group_7" data-name="Group 7" transform="translate(0 0)">
        <path id="Path_3" data-name="Path 3" d="M34,0a2,2,0,1,0,2,2A2,2,0,0,0,34,0Z" transform="translate(-31.999 -0.005)"/>
      </g>
    </g>
    <g id="Group_10" data-name="Group 10" transform="translate(11.126 5.005)">
      <g id="Group_9" data-name="Group 9">
        <path id="Path_4" data-name="Path 4" d="M360.932,164.441l-.454-3.535a1,1,0,0,0-.994-.9h-.548a.5.5,0,0,0-.354.146l-.646.646-.646-.646a.5.5,0,0,0-.353-.146h-.548a.952.952,0,0,0-.177.033,1.946,1.946,0,0,1,.26.752l.453,3.524a1.5,1.5,0,0,1-.366,1.186,1.45,1.45,0,0,1-.5.352l.332,3.253a1,1,0,0,0,.995.9h1.095a1,1,0,0,0,1-.909L359.9,165h.539a.5.5,0,0,0,.375-.17A.493.493,0,0,0,360.932,164.441Z" transform="translate(-356.063 -160.005)"/>
      </g>
    </g>
    <g id="Group_12" data-name="Group 12" transform="translate(-0.001 5.005)">
      <g id="Group_11" data-name="Group 11" transform="translate(0)">
        <path id="Path_5" data-name="Path 5" d="M4.373,165.495a1.5,1.5,0,0,1-.362-1.179l.455-3.551a1.849,1.849,0,0,1,.249-.728A.94.94,0,0,0,4.547,160H4a.5.5,0,0,0-.354.146L3,160.8l-.646-.646A.5.5,0,0,0,2,160H1.452a.994.994,0,0,0-.994.887L0,164.442A.5.5,0,0,0,.5,165h.54l.418,4.1a1,1,0,0,0,.995.9H3.547a1,1,0,0,0,1-.909l.332-3.245A1.5,1.5,0,0,1,4.373,165.495Z" transform="translate(0.001 -160.005)"/>
      </g>
    </g>
  </g>
</svg>
